<svg xmlns="http://www.w3.org/2000/svg" xmlns:xlink="http://www.w3.org/1999/xlink" width="130.081" height="40" viewBox="0 0 130.081 40"><defs><style>.a{clip-path:url(#d);}.b{fill:#fff;}.c{fill:#ff8c00;}.d{filter:url(#a);}</style><filter id="a" x="-1.592" y="0.575" width="42.698" height="45.288" filterUnits="userSpaceOnUse"><feOffset dy="3" input="SourceAlpha"/><feGaussianBlur stdDeviation="3" result="b"/><feFlood flood-opacity="0.161"/><feComposite operator="in" in2="b"/><feComposite in="SourceGraphic"/></filter><clipPath id="d"><rect width="130.081" height="40"/></clipPath></defs><g id="c" class="a"><g transform="translate(-30.9 -109.673)"><g transform="translate(76.485 117.129)"><path class="b" d="M6.8-21.328v6.19H3.976V-32.209H9.154a6.859,6.859,0,0,1,4.559,1.369,4.774,4.774,0,0,1,1.619,3.857,5.329,5.329,0,0,1-1.69,4.071,6.419,6.419,0,0,1-4.571,1.583Zm0-8.548v6.238H8.63a4.054,4.054,0,0,0,2.774-.845,3.017,3.017,0,0,0,.952-2.381q0-3.012-3.5-3.012ZM22.5-14.852a6.042,6.042,0,0,1-4.506-1.708,6.171,6.171,0,0,1-1.685-4.53,6.421,6.421,0,0,1,1.756-4.8A6.457,6.457,0,0,1,22.8-27.614a5.848,5.848,0,0,1,4.452,1.679,6.484,6.484,0,0,1,1.6,4.655,6.389,6.389,0,0,1-1.72,4.673A6.179,6.179,0,0,1,22.5-14.852Zm.131-10.559a3.153,3.153,0,0,0-2.559,1.131,4.735,4.735,0,0,0-.94,3.119,4.46,4.46,0,0,0,.952,3.018,3.2,3.2,0,0,0,2.548,1.1,3.035,3.035,0,0,0,2.506-1.083,4.8,4.8,0,0,0,.875-3.083,4.868,4.868,0,0,0-.875-3.107A3.021,3.021,0,0,0,22.63-25.411Zm8.262,9.893v-2.559A5.51,5.51,0,0,0,34.309-16.9q2.5,0,2.5-1.476a1.163,1.163,0,0,0-.214-.708,2.046,2.046,0,0,0-.577-.518,4.539,4.539,0,0,0-.857-.4q-.494-.179-1.1-.4a11.658,11.658,0,0,1-1.351-.631,4.082,4.082,0,0,1-1-.756,2.853,2.853,0,0,1-.6-.958,3.529,3.529,0,0,1-.2-1.25,2.889,2.889,0,0,1,.417-1.554,3.621,3.621,0,0,1,1.119-1.131,5.366,5.366,0,0,1,1.6-.69,7.3,7.3,0,0,1,1.845-.232A8.388,8.388,0,0,1,38.9-27.1v2.417a5.1,5.1,0,0,0-2.952-.881,3.856,3.856,0,0,0-.946.107,2.443,2.443,0,0,0-.72.3,1.464,1.464,0,0,0-.464.458,1.094,1.094,0,0,0-.167.589,1.259,1.259,0,0,0,.167.667,1.514,1.514,0,0,0,.494.482,4.267,4.267,0,0,0,.786.381q.458.173,1.054.375a15.393,15.393,0,0,1,1.411.655,4.767,4.767,0,0,1,1.065.756,2.963,2.963,0,0,1,.679.976,3.315,3.315,0,0,1,.238,1.315,3.007,3.007,0,0,1-.429,1.619,3.572,3.572,0,0,1-1.143,1.143,5.35,5.35,0,0,1-1.649.673,8.566,8.566,0,0,1-1.97.22A8.3,8.3,0,0,1,30.892-15.519Zm11.583.381V-32.209h5.417a6.4,6.4,0,0,1,3.923,1.083A3.367,3.367,0,0,1,53.261-28.3a4.029,4.029,0,0,1-.821,2.524,4.432,4.432,0,0,1-2.274,1.524v.048a4.455,4.455,0,0,1,2.815,1.3,3.97,3.97,0,0,1,1.054,2.863,4.3,4.3,0,0,1-1.726,3.548,6.834,6.834,0,0,1-4.357,1.357Zm2.821-14.8v4.857H47.13a3.521,3.521,0,0,0,2.315-.7,2.417,2.417,0,0,0,.839-1.97q0-2.19-2.929-2.19Zm0,7.131v5.4h2.417a3.675,3.675,0,0,0,2.446-.732,2.5,2.5,0,0,0,.863-2.018q0-2.655-3.679-2.655Zm22.155-4.524-5.5,14.143Q60.237-9.4,57.142-9.4a5.767,5.767,0,0,1-1.452-.155v-2.3a3.862,3.862,0,0,0,1.19.214,2.457,2.457,0,0,0,2.31-1.524l.821-2L55.166-27.328h3.059l2.9,8.857q.048.167.214.881h.06q.06-.274.214-.857l3.048-8.881Zm8.321,12.059a4.786,4.786,0,0,1-2.131.4q-3.548,0-3.548-3.4v-6.893H68.058v-2.167h2.036v-2.821l2.762-.786v3.607h2.917v2.167H72.856v6.1a2.4,2.4,0,0,0,.393,1.548,1.631,1.631,0,0,0,1.31.464,1.9,1.9,0,0,0,1.214-.4Zm11.381-10.9L80.57-17.292H87.13v2.155H76.7v-1.036l6.726-9H77.344v-2.155h9.809Z" transform="translate(-3.976 32.209)"/><path class="b" d="M.81-5.44v-.951a1.469,1.469,0,0,0,.3.21,2.355,2.355,0,0,0,.375.157,2.952,2.952,0,0,0,.4.1,2.111,2.111,0,0,0,.365.035,1.557,1.557,0,0,0,.868-.194A.639.639,0,0,0,3.4-6.647a.614.614,0,0,0-.1-.344,1,1,0,0,0-.266-.266,2.794,2.794,0,0,0-.4-.231q-.231-.111-.495-.231-.283-.151-.528-.307a2.272,2.272,0,0,1-.425-.344,1.437,1.437,0,0,1-.283-.425,1.384,1.384,0,0,1-.1-.555,1.281,1.281,0,0,1,.177-.681,1.492,1.492,0,0,1,.466-.477,2.136,2.136,0,0,1,.658-.28,3.125,3.125,0,0,1,.753-.091,3.04,3.04,0,0,1,1.273.2v.912a2.034,2.034,0,0,0-1.219-.342,2.184,2.184,0,0,0-.41.039,1.217,1.217,0,0,0-.365.128.79.79,0,0,0-.262.229.561.561,0,0,0-.1.338.639.639,0,0,0,.078.322.831.831,0,0,0,.227.248,2.32,2.32,0,0,0,.365.219q.215.107.5.231.291.151.549.318a2.589,2.589,0,0,1,.454.369,1.621,1.621,0,0,1,.311.448,1.317,1.317,0,0,1,.115.561,1.39,1.39,0,0,1-.171.714,1.377,1.377,0,0,1-.46.474,2.049,2.049,0,0,1-.666.264,3.754,3.754,0,0,1-.8.082,3.389,3.389,0,0,1-.344-.021q-.2-.021-.417-.062a3.839,3.839,0,0,1-.4-.1A1.278,1.278,0,0,1,.81-5.44ZM8.659-6.961H5.949a1.145,1.145,0,0,0,.34.85,1.264,1.264,0,0,0,.891.3,1.965,1.965,0,0,0,1.168-.38v.726a2.67,2.67,0,0,1-1.436.342,1.778,1.778,0,0,1-1.376-.542,2.166,2.166,0,0,1-.5-1.524A2.118,2.118,0,0,1,5.586-8.7a1.8,1.8,0,0,1,1.365-.584,1.567,1.567,0,0,1,1.262.524,2.176,2.176,0,0,1,.446,1.456ZM7.789-7.6a1.16,1.16,0,0,0-.229-.755.765.765,0,0,0-.621-.27.874.874,0,0,0-.658.283,1.3,1.3,0,0,0-.332.741Zm2.632,2.38h-.9V-11.1h.9Zm2.077,0h-.9V-11.1h.9Zm6.409,0h-.873V-5.84h-.016a1.315,1.315,0,0,1-1.207.714,1.272,1.272,0,0,1-.918-.318,1.113,1.113,0,0,1-.332-.842q0-1.126,1.3-1.312l1.18-.167q0-.85-.807-.85a1.918,1.918,0,0,0-1.281.489v-.788A2.794,2.794,0,0,1,17.4-9.287,1.321,1.321,0,0,1,18.907-7.8Zm-.87-1.953-.835.116a1.323,1.323,0,0,0-.584.188.55.55,0,0,0-.2.483.529.529,0,0,0,.181.413.7.7,0,0,0,.483.161.892.892,0,0,0,.681-.289,1.025,1.025,0,0,0,.27-.728Zm5.508,1.953h-.9v-2.24q0-1.114-.788-1.114a.86.86,0,0,0-.679.309,1.145,1.145,0,0,0-.268.778v2.267h-.9V-9.194h.9v.66h.016a1.417,1.417,0,0,1,1.289-.753,1.2,1.2,0,0,1,.99.421,1.891,1.891,0,0,1,.342,1.217Zm4.542-3.975L26.295-4.582a1.738,1.738,0,0,1-1.568,1.234,1.88,1.88,0,0,1-.474-.05v-.749a1.259,1.259,0,0,0,.388.07.8.8,0,0,0,.753-.5l.268-.652-1.58-3.967h1l.947,2.888q.016.054.07.287h.019q.019-.089.07-.28l.994-2.9Zm5.943,0L32.859-5.218h-.943l-.722-2.694a1.706,1.706,0,0,1-.054-.349h-.016a1.593,1.593,0,0,1-.07.342l-.784,2.7h-.924L28.177-9.194h.932l.722,2.865a1.7,1.7,0,0,1,.047.342H29.9a1.845,1.845,0,0,1,.062-.349l.8-2.857h.846l.714,2.877a2.012,2.012,0,0,1,.05.342h.027a1.812,1.812,0,0,1,.058-.342l.707-2.877Zm4.2,3.975h-.9V-7.392q0-1.18-.788-1.18a.824.824,0,0,0-.668.342,1.36,1.36,0,0,0-.272.873v2.139h-.9V-11.1h.9v2.57h.016a1.422,1.422,0,0,1,1.289-.753q1.324,0,1.324,1.619Zm4.46-1.743h-2.71a1.145,1.145,0,0,0,.34.85,1.264,1.264,0,0,0,.891.3,1.965,1.965,0,0,0,1.168-.38v.726a2.67,2.67,0,0,1-1.436.342,1.778,1.778,0,0,1-1.376-.542,2.166,2.166,0,0,1-.5-1.524A2.118,2.118,0,0,1,39.619-8.7a1.8,1.8,0,0,1,1.365-.584,1.567,1.567,0,0,1,1.262.524,2.176,2.176,0,0,1,.446,1.456Zm-.87-.637a1.16,1.16,0,0,0-.229-.755.765.765,0,0,0-.621-.27.874.874,0,0,0-.658.283,1.3,1.3,0,0,0-.332.741Zm4.033-.738a.747.747,0,0,0-.47-.128.8.8,0,0,0-.668.361,1.614,1.614,0,0,0-.268.982v1.9h-.9V-9.194h.9v.819h.016a1.385,1.385,0,0,1,.406-.654.916.916,0,0,1,.611-.235.759.759,0,0,1,.373.074Zm3.932,1.374h-2.71a1.145,1.145,0,0,0,.34.85,1.264,1.264,0,0,0,.891.3,1.965,1.965,0,0,0,1.168-.38v.726a2.67,2.67,0,0,1-1.436.342,1.778,1.778,0,0,1-1.376-.542,2.166,2.166,0,0,1-.5-1.524A2.118,2.118,0,0,1,46.716-8.7a1.8,1.8,0,0,1,1.365-.584,1.567,1.567,0,0,1,1.262.524,2.176,2.176,0,0,1,.446,1.456Zm-.87-.637a1.16,1.16,0,0,0-.229-.755.765.765,0,0,0-.621-.27.874.874,0,0,0-.658.283,1.3,1.3,0,0,0-.332.741Z" transform="translate(-0.428 31.573)"/></g><g transform="translate(32.061 111.112)"><path class="c" d="M10.412,0H26.85A10.412,10.412,0,0,1,37.261,10.412V27.149A10.412,10.412,0,0,1,26.85,37.561H10.412A10.412,10.412,0,0,1,0,27.149V10.412A10.412,10.412,0,0,1,10.412,0Z" transform="translate(0 0)"/><g transform="translate(6.247 5.136)"><g transform="translate(0 0)"><g class="d" transform="matrix(1, 0, 0, 1, -7.41, -6.58)"><path class="b" d="M447.832,22.262a4.532,4.532,0,1,0,4.532,4.532A4.532,4.532,0,0,0,447.832,22.262Zm19.531-2.253A4.486,4.486,0,0,0,468,17.7a4.531,4.531,0,1,0-8.427,2.306,13.677,13.677,0,0,1,0,13.595,4.531,4.531,0,1,0,7.791,0A13.677,13.677,0,0,1,467.362,20.01Zm-13.78-.451h0a2.165,2.165,0,0,0-.5,3.1,6.811,6.811,0,0,1,.053,8.215,2.165,2.165,0,0,0,.5,3.1h0a2.157,2.157,0,0,0,2.915-.477A11.119,11.119,0,0,0,456.5,20.01a2.179,2.179,0,0,0-2.915-.451Z" transform="translate(-435.89 -6.59)"/></g></g></g></g></g></g></svg>