<svg xmlns="http://www.w3.org/2000/svg" width="645.297" height="487.114" viewBox="0 0 645.297 487.114">
  <g id="undraw_building_websites_i78t" transform="translate(0 0)">
    <path id="Path_216" data-name="Path 216" d="M666.7,130.168c5.535,11.779-6.194,15.115-19.629,21.429s-23.49,13.213-29.025,1.434-10.026-35.158,8.981-44.089C646.692,99.7,661.169,118.389,666.7,130.168Z" transform="translate(-294.84 -106.46)" fill="#2f2e41"/>
    <circle id="Ellipse_2" data-name="Ellipse 2" cx="18.087" cy="18.087" r="18.087" transform="translate(326.365 10.699)" fill="#ffb8b8"/>
    <path id="Path_217" data-name="Path 217" d="M747.32,245.98c-.626-.817-1.252-1.62-1.885-2.4q-1.226-1.524-2.467-2.953c-9.374-10.818-19.345-17.63-30.325-18.359h-.015l-.162-.015-21.879,21.326-7.438,7.246.162.4,4.013,9.993h70.32a172.923,172.923,0,0,0-10.324-15.236Z" transform="translate(-313.263 -136.982)" fill="#2f2e41"/>
    <path id="Path_218" data-name="Path 218" d="M621.25,145.108h0l6.474-3.042-.9-9.34,4.329,7.729L634.246,139l-.526-5.448,2.526,4.509,22.994-10.805h0a19.147,19.147,0,0,0-25.472-9.186l-3.333,1.566A19.147,19.147,0,0,0,621.25,145.108Z" transform="translate(-296.466 -109.04)" fill="#2f2e41"/>
    <path id="Path_219" data-name="Path 219" d="M685.861,512.5H308.2a12.164,12.164,0,0,1-12.151-12.151V273.421a8.912,8.912,0,0,1,8.9-8.9h384a9.066,9.066,0,0,1,9.056,9.056V500.348A12.164,12.164,0,0,1,685.861,512.5Z" transform="translate(-211.227 -148.123)" fill="#f2f2f2"/>
    <path id="Path_220" data-name="Path 220" d="M324.335,507.384H678.428A11.783,11.783,0,0,0,690.211,495.6V303a11.782,11.782,0,0,0-11.782-11.783H324.335A11.783,11.783,0,0,0,312.552,303V495.6A11.783,11.783,0,0,0,324.335,507.384Z" transform="translate(-215.576 -155.16)" fill="#fff"/>
    <path id="Path_221" data-name="Path 221" d="M697.781,269.086H295.82V262.9a12.205,12.205,0,0,1,12.195-12.187H685.586a12.205,12.205,0,0,1,12.2,12.187Z" transform="translate(-211.166 -144.484)" fill="#ff8c00"/>
    <circle id="Ellipse_3" data-name="Ellipse 3" cx="3.154" cy="3.154" r="3.154" transform="translate(103.662 112.279)" fill="#fff"/>
    <circle id="Ellipse_4" data-name="Ellipse 4" cx="3.154" cy="3.154" r="3.154" transform="translate(115.636 112.279)" fill="#fff"/>
    <circle id="Ellipse_5" data-name="Ellipse 5" cx="3.154" cy="3.154" r="3.154" transform="translate(127.609 112.279)" fill="#fff"/>
    <path id="Path_222" data-name="Path 222" d="M570.135,511.7H538.47a7,7,0,0,1-7-7V473.036a7,7,0,0,1,7-7h31.666a7,7,0,0,1,7,7V504.7A7,7,0,0,1,570.135,511.7ZM538.47,467.513a5.529,5.529,0,0,0-5.523,5.523V504.7a5.529,5.529,0,0,0,5.523,5.523h31.665a5.529,5.529,0,0,0,5.523-5.523V473.036a5.529,5.529,0,0,0-5.523-5.523Z" transform="translate(-273.282 -201.243)" fill="#ccc"/>
    <path id="Path_223" data-name="Path 223" d="M567.83,506.023H548.683a2.212,2.212,0,0,1-2.209-2.209V480.249a2.212,2.212,0,0,1,2.209-2.209h13.873a2.215,2.215,0,0,1,1.384.487l5.273,4.237a2.2,2.2,0,0,1,.826,1.722v19.328A2.212,2.212,0,0,1,567.83,506.023Zm-19.147-26.511a.737.737,0,0,0-.736.736v23.565a.737.737,0,0,0,.736.736H567.83a.737.737,0,0,0,.736-.736V484.486a.733.733,0,0,0-.275-.574l-5.274-4.238a.738.738,0,0,0-.461-.162Z" transform="translate(-277.236 -204.406)" fill="#ccc"/>
    <path id="Path_224" data-name="Path 224" d="M565.993,491.513H554.21a.736.736,0,1,1,0-1.473h11.783a.736.736,0,0,1,0,1.473Z" transform="translate(-279.081 -207.569)" fill="#ccc"/>
    <path id="Path_225" data-name="Path 225" d="M565.993,497.513H554.21a.736.736,0,1,1,0-1.473h11.783a.736.736,0,0,1,0,1.473Z" transform="translate(-279.081 -209.15)" fill="#ccc"/>
    <path id="Path_226" data-name="Path 226" d="M565.993,503.513H554.21a.736.736,0,1,1,0-1.473h11.783a.736.736,0,0,1,0,1.473Z" transform="translate(-279.081 -210.732)" fill="#ccc"/>
    <path id="Path_227" data-name="Path 227" d="M672.135,511.7H640.47a7,7,0,0,1-7-7V473.036a7,7,0,0,1,7-7h31.666a7,7,0,0,1,7,7V504.7A7,7,0,0,1,672.135,511.7ZM640.47,467.513a5.529,5.529,0,0,0-5.523,5.523V504.7a5.529,5.529,0,0,0,5.523,5.523h31.666a5.529,5.529,0,0,0,5.523-5.523V473.036a5.529,5.529,0,0,0-5.523-5.523Z" transform="translate(-300.168 -201.243)" fill="#ccc"/>
    <path id="Path_228" data-name="Path 228" d="M670.3,502.241H649.683a2.212,2.212,0,0,1-2.209-2.209V488.249a2.212,2.212,0,0,1,2.209-2.209H670.3a2.212,2.212,0,0,1,2.209,2.209v11.783A2.212,2.212,0,0,1,670.3,502.241Zm-20.619-14.728a.737.737,0,0,0-.736.736v11.783a.737.737,0,0,0,.736.736H670.3a.737.737,0,0,0,.736-.736V488.249a.737.737,0,0,0-.736-.736Z" transform="translate(-303.859 -206.515)" fill="#ccc"/>
    <path id="Path_229" data-name="Path 229" d="M659.993,496.61a2.212,2.212,0,0,1-1.171-.333l-11-6.876a.737.737,0,1,1,.781-1.249l11,6.876a.74.74,0,0,0,.78,0l11-6.876a.737.737,0,0,1,.781,1.249l-11,6.876A2.212,2.212,0,0,1,659.993,496.61Z" transform="translate(-303.859 -207.042)" fill="#ccc"/>
    <path id="Path_230" data-name="Path 230" d="M468.135,511.7H436.47a7,7,0,0,1-7-7V473.036a7,7,0,0,1,7-7h31.666a7,7,0,0,1,7,7V504.7A7,7,0,0,1,468.135,511.7ZM436.47,467.513a5.529,5.529,0,0,0-5.523,5.523V504.7a5.529,5.529,0,0,0,5.523,5.523h31.666a5.529,5.529,0,0,0,5.523-5.523V473.036a5.529,5.529,0,0,0-5.523-5.523Z" transform="translate(-246.396 -201.243)" fill="#ccc"/>
    <path id="Path_231" data-name="Path 231" d="M466.3,502.241H445.683a2.212,2.212,0,0,1-2.209-2.209V488.249a2.212,2.212,0,0,1,2.209-2.209H466.3a2.212,2.212,0,0,1,2.209,2.209v11.783A2.212,2.212,0,0,1,466.3,502.241Zm-20.619-14.728a.737.737,0,0,0-.736.736v11.783a.737.737,0,0,0,.736.736H466.3a.737.737,0,0,0,.736-.736V488.249a.737.737,0,0,0-.736-.736Z" transform="translate(-250.086 -206.515)" fill="#ccc"/>
    <path id="Path_232" data-name="Path 232" d="M464.2,504.218H449.385a1.473,1.473,0,0,1-1.275-2.209l4.464-7.732a1.473,1.473,0,0,1,2.551,0l2.883,4.994,1.67-2.893a1.473,1.473,0,0,1,2.551,0l3.251,5.632a1.473,1.473,0,0,1-1.276,2.209Zm0-1.473h0l-3.251-5.632-2.308,4a.736.736,0,0,1-.638.368h0a.736.736,0,0,1-.638-.368l-3.521-6.1-4.464,7.732Z" transform="translate(-251.256 -208.491)" fill="#ccc"/>
    <circle id="Ellipse_6" data-name="Ellipse 6" cx="1.473" cy="1.473" r="1.473" transform="translate(212.535 282.471)" fill="#ccc"/>
    <path id="Path_233" data-name="Path 233" d="M764.056,635.685h-9.028l-4.295-34.823h13.325Z" transform="translate(-197.887 -158.382)" fill="#ffb8b8"/>
    <path id="Path_234" data-name="Path 234" d="M942.4,762.306H913.285v-.368a11.33,11.33,0,0,1,11.331-11.331H942.4Z" transform="translate(-373.924 -276.252)" fill="#2f2e41"/>
    <path id="Path_235" data-name="Path 235" d="M814.056,635.685h-9.028l-4.295-34.823h13.325Z" transform="translate(-211.067 -158.382)" fill="#ffb8b8"/>
    <path id="Path_236" data-name="Path 236" d="M992.4,762.306H963.289v-.368a11.331,11.331,0,0,1,11.331-11.331H992.4Z" transform="translate(-387.105 -276.252)" fill="#2f2e41"/>
    <path id="Path_237" data-name="Path 237" d="M978.284,686.2l-8.362-2.544a3.309,3.309,0,0,1-2.331-2.823l-7.8-73.881a.353.353,0,0,0-.352-.329.346.346,0,0,0-.376.3L946.01,678.5a3.314,3.314,0,0,1-3.929,2.651l-10.686-2.2a3.326,3.326,0,0,1-2.638-3.47L936.7,558.164l53.859-5.811-8,130.88a3.311,3.311,0,0,1-4.272,2.969Z" transform="translate(-378.001 -223.994)" fill="#2f2e41"/>
    <circle id="Ellipse_7" data-name="Ellipse 7" cx="18.087" cy="18.087" r="18.087" transform="translate(582.145 195.83)" fill="#ffb8b8"/>
    <path id="Path_238" data-name="Path 238" d="M939.433,526.447l11.678-73.531a27.879,27.879,0,0,1,35.352-22.386h0a27.794,27.794,0,0,1,19.589,31.859l-12.218,65.667Z" transform="translate(-380.817 -191.587)" fill="#ff8c00"/>
    <path id="Path_239" data-name="Path 239" d="M998.572,566.638a7.405,7.405,0,0,0,1.286-11.282l12.074-23.382-13.6,1.451-9.381,21.981a7.445,7.445,0,0,0,9.618,11.231Z" transform="translate(-393.351 -218.623)" fill="#ffb8b8"/>
    <path id="Path_240" data-name="Path 240" d="M1003.566,528.346a3.318,3.318,0,0,1-1.787-.847l-4.62-4.269a3.325,3.325,0,0,1-.8-3.722l9.233-21.885-1.31-43.242a10.675,10.675,0,0,1,21.155,2.886l2.239,27.183a34.15,34.15,0,0,1-6.582,23.121l-14.4,19.465a3.318,3.318,0,0,1-2.353,1.328A3.273,3.273,0,0,1,1003.566,528.346Z" transform="translate(-395.753 -195.736)" fill="#ff8c00"/>
    <path id="Path_241" data-name="Path 241" d="M854.457,380.4a7.405,7.405,0,0,0,9.887,5.583l16.824,20.235,3.965-13.087-16.584-17.209a7.445,7.445,0,0,0-14.092,4.478Z" transform="translate(-358.382 -176.336)" fill="#ffb8b8"/>
    <path id="Path_242" data-name="Path 242" d="M872.232,393.454a3.318,3.318,0,0,1,1.477-1.315l5.732-2.59a3.325,3.325,0,0,1,3.741.711l16.553,17.035,40.33,15.654A10.675,10.675,0,0,1,929.16,441.3l-25.9-8.536a34.15,34.15,0,0,1-18.725-15.076L872.22,396.844a3.312,3.312,0,0,1,.012-3.39Z" transform="translate(-362.979 -181.003)" fill="#ff8c00"/>
    <path id="Path_243" data-name="Path 243" d="M829.883,375.652l-.736,23.565L815.58,422.79l11.327-26.27Z" transform="translate(-214.98 -99.019)" opacity="0.1"/>
    <path id="Path_244" data-name="Path 244" d="M985.482,392.325a4.73,4.73,0,0,1-5.177-3.463,7.19,7.19,0,0,0-5.119-5.356c-3.318-.758-7.373.8-9.8-1.71a4.888,4.888,0,0,1-1.16-4.3c.448-2.443,2.2-4.288,4.1-5.764a25.083,25.083,0,0,1,13.893-5.192,49.836,49.836,0,0,1,7.821.389,34.615,34.615,0,0,1,8,1.462,18.834,18.834,0,0,1,11.784,13.756,21.745,21.745,0,0,1-4.461,17.77,23.346,23.346,0,0,1-8.955,6.818,3.494,3.494,0,0,1-2.656.135c-2.178-.866-1.822-3.564-.829-5.363,1.063-1.926,2.7-3.79,1.843-6.133a4.641,4.641,0,0,0-2.3-2.479c-2.165-1.1-4.586-.843-6.914-.574Z" transform="translate(-387.322 -175.009)" fill="#2f2e41"/>
    <path id="Path_245" data-name="Path 245" d="M761.816,389.6H537.948A12.165,12.165,0,0,1,525.8,377.45V329.584a12.165,12.165,0,0,1,12.151-12.151H761.816a12.165,12.165,0,0,1,12.151,12.151V377.45A12.165,12.165,0,0,1,761.816,389.6Z" transform="translate(-271.786 -162.071)" fill="#fff"/>
    <path id="Path_246" data-name="Path 246" d="M761.684,389.837H537.816A12.533,12.533,0,0,1,525.3,377.319V329.452a12.533,12.533,0,0,1,12.519-12.519H761.684A12.533,12.533,0,0,1,774.2,329.452v47.867A12.533,12.533,0,0,1,761.684,389.837ZM537.816,318.406a11.059,11.059,0,0,0-11.046,11.046v47.867a11.059,11.059,0,0,0,11.046,11.046H761.684a11.059,11.059,0,0,0,11.046-11.046V329.452a11.059,11.059,0,0,0-11.046-11.046Z" transform="translate(-271.654 -161.939)" fill="#3f3d56"/>
    <path id="Path_247" data-name="Path 247" d="M744.322,381.772H574.948A12.165,12.165,0,0,1,562.8,369.622V344.584a12.165,12.165,0,0,1,12.151-12.151H744.322a12.164,12.164,0,0,1,12.151,12.151v25.038A12.165,12.165,0,0,1,744.322,381.772Z" transform="translate(-281.539 -166.025)" fill="#f2f2f2"/>
    <circle id="Ellipse_8" data-name="Ellipse 8" cx="14.531" cy="14.531" r="14.531" transform="translate(315.327 173.19)" fill="#ff6584"/>
    <path id="Path_248" data-name="Path 248" d="M741.819,383.581l-20.511-17.2-20.157-16.905a2.946,2.946,0,0,0-3.795.007l-20.092,16.983-4.907,4.148-7.4-6.206-22.488-18.86a2.945,2.945,0,0,0-3.794.007L616.261,364.5l-22.768,19.245a.736.736,0,0,0,.477,1.3l46.678-.09,14.775-.028-.145.122,44.043-.085,42.025-.081a.736.736,0,0,0,.472-1.3Z" transform="translate(-289.561 -169.3)" fill="#3f3d56"/>
    <path id="Path_249" data-name="Path 249" d="M1005.267,767.406H863.876a.736.736,0,1,1,0-1.473h141.39a.736.736,0,0,1,0,1.473Z" transform="translate(-360.706 -280.292)" fill="#ccc"/>
    <path id="Path_250" data-name="Path 250" d="M758.391,218.3a8.263,8.263,0,0,0-5.339-3.756,7.585,7.585,0,0,0-1.222-.155l-56.107-50.164a6.639,6.639,0,0,0-4.146-1.981,5.65,5.65,0,0,0-.935-.029,6.668,6.668,0,0,0-4.389,11.4l21.481,18.727,35.274,30.745a8.768,8.768,0,0,0,.258,1.716,8.3,8.3,0,0,0,7.121,6.164,8.168,8.168,0,0,0,4.456-.736,8.4,8.4,0,0,0,2.857-2.187c.081-.1.155-.184.228-.287a8.316,8.316,0,0,0,.464-9.456Z" transform="translate(-313.559 -121.154)" fill="#ffb8b8"/>
    <path id="Path_251" data-name="Path 251" d="M649.17,274.906l-.523-21.253-.442-17.637-.3-12.342-.6-24.058a6.661,6.661,0,0,0-11.569-3.866,5.1,5.1,0,0,0-.552.707,6.581,6.581,0,0,0-1.149,4.455l1.311,35.1L636,253.654l.839,22.5a8.876,8.876,0,0,0-.655,1.038,8.327,8.327,0,1,0,12.983-2.283Z" transform="translate(-300.307 -129.42)" fill="#ffb8b8"/>
    <path id="Path_252" data-name="Path 252" d="M699.934,206.271l-5.207-14.1L686.3,169.325a11.787,11.787,0,0,0-7.327-7.128c-.132-.044-.272-.088-.4-.125a11.771,11.771,0,0,0-9.75,1.34l-28.374,18a11.851,11.851,0,0,0-3.881,16.017A203.476,203.476,0,0,0,648.15,215.24c3.307,4.5,9.463,4.978,10.531,12.342H679.6l21.179-19.014Z" transform="translate(-300.553 -120.985)" fill="#ccc"/>
    <circle id="Ellipse_9" data-name="Ellipse 9" cx="17.064" cy="17.064" r="17.064" transform="translate(57.435 223.507)" fill="#a0616a"/>
    <path id="Path_253" data-name="Path 253" d="M323.788,416.6q.252.2.489.426a7.644,7.644,0,0,1-.307,11.4,7.162,7.162,0,0,1-.6.452l1.155,38.989a5.936,5.936,0,0,1-4.083,5.793l-.07.015-31.657,3.371a6.553,6.553,0,1,1-1.268-13.044l22.567-1.987,3.9-33.765a7.278,7.278,0,0,1-.715-.729A7.644,7.644,0,0,1,323.788,416.6Z" transform="translate(-207.398 -187.775)" fill="#a0616a"/>
    <path id="Path_254" data-name="Path 254" d="M139.327,637.414h8.518l4.052-32.853H139.326Z" transform="translate(-36.725 -159.357)" fill="#a0616a"/>
    <path id="Path_255" data-name="Path 255" d="M317.242,751.858h16.775a10.69,10.69,0,0,1,10.69,10.69v.347H317.242Z" transform="translate(-216.812 -276.582)" fill="#2f2e41"/>
    <path id="Path_256" data-name="Path 256" d="M24.366,623.078l7.318,4.357,20.29-26.155-10.8-6.431Z" transform="translate(-6.423 -156.797)" fill="#a0616a"/>
    <path id="Path_257" data-name="Path 257" d="M202.606,734.889l14.413,8.581h0a10.689,10.689,0,0,1,3.716,14.654l-.178.3-23.6-14.05Z" transform="translate(-185.107 -272.109)" fill="#2f2e41"/>
    <path id="Path_258" data-name="Path 258" d="M302.142,683.8H292.6a3.121,3.121,0,0,1-3.109-2.8l-9.615-90.385a1.042,1.042,0,0,0-1.986-.319l-17.346,38.41-30.711,50.078a3.141,3.141,0,0,1-3.924,1.227l-12.269-5.4a3.127,3.127,0,0,1-1.425-4.466l28.232-47.272,8.658-39.829c-2.723-17.273,8.951-42.952,9.069-43.21l.058-.125,32.157-12.569.161.2c12.682,41.617,20.41,86.4,14.7,153.591A3.147,3.147,0,0,1,302.142,683.8Z" transform="translate(-189.013 -217.351)" fill="#2f2e41"/>
    <path id="Path_259" data-name="Path 259" d="M268.043,527.323l-.15-.315c-.072-.151-7.222-15.232-12.734-31.35a23.775,23.775,0,0,1,1.648-19.053,24.035,24.035,0,0,1,15.327-11.786h0a24.064,24.064,0,0,1,27.931,14.411c4.372,10.934,2.979,22.6,1.667,31.781l-.026.184-.167.08Z" transform="translate(-200.114 -200.745)" fill="#3f3d56"/>
    <path id="Path_260" data-name="Path 260" d="M300.425,414.9h-27.1V403.092c5.947-2.363,11.767-4.372,15.285,0A11.811,11.811,0,0,1,300.425,414.9Z" transform="translate(-205.237 -183.97)" fill="#2f2e41"/>
    <path id="Path_261" data-name="Path 261" d="M263.872,401.185c-16.2,0-20.732,20.3-20.732,31.758,0,6.388,2.889,8.673,7.429,9.446l1.6-8.55,3.755,8.918c1.275.006,2.615-.018,4-.044l1.273-2.621,2.839,2.574c11.371.017,20.561,1.674,20.561-9.723C284.6,421.488,280.628,401.185,263.872,401.185Z" transform="translate(-197.28 -184.147)" fill="#2f2e41"/>
    <path id="Path_262" data-name="Path 262" d="M322.991,767.406H181.6a.736.736,0,1,1,0-1.473h141.39a.736.736,0,0,1,0,1.473Z" transform="translate(-180.864 -280.292)" fill="#ccc"/>
    <path id="Path_263" data-name="Path 263" d="M363.635,422.59H331.97a7,7,0,0,1-7-7V383.929a7,7,0,0,1,7-7h31.666a7,7,0,0,1,7,7v31.666A7,7,0,0,1,363.635,422.59Z" transform="translate(-218.85 -177.755)" fill="#fff"/>
    <path id="Path_264" data-name="Path 264" d="M363.635,422.59H331.97a7,7,0,0,1-7-7V383.929a7,7,0,0,1,7-7h31.666a7,7,0,0,1,7,7v31.666A7,7,0,0,1,363.635,422.59ZM331.97,378.406a5.529,5.529,0,0,0-5.523,5.523v31.666a5.529,5.529,0,0,0,5.523,5.523h31.666a5.529,5.529,0,0,0,5.523-5.523V383.929a5.529,5.529,0,0,0-5.523-5.523Z" transform="translate(-218.85 -177.755)" fill="#3f3d56"/>
    <path id="Path_265" data-name="Path 265" d="M361.8,414.316H341.183a2.212,2.212,0,0,1-2.209-2.209V396.642a2.212,2.212,0,0,1,2.209-2.209h5.8a2.2,2.2,0,0,1,1.882,1.051l1.619,2.631H361.8a2.212,2.212,0,0,1,2.209,2.209v11.783a2.212,2.212,0,0,1-2.209,2.209Z" transform="translate(-222.541 -182.368)" fill="#ff8c00"/>
    <path id="Path_266" data-name="Path 266" d="M347.448,430.622q.155.283.285.582a7.644,7.644,0,0,1-4.708,10.39,7.15,7.15,0,0,1-.728.184l-14.065,36.382a5.937,5.937,0,0,1-6.011,3.755l-.071-.013-30.485-9.177a6.553,6.553,0,1,1,3.893-12.514l21.57,6.925,16.7-29.6a7.269,7.269,0,0,1-.377-.95,7.644,7.644,0,0,1,14-5.958Z" transform="translate(-208.856 -190.861)" fill="#a0616a"/>
  </g>
</svg>
