<svg xmlns="http://www.w3.org/2000/svg" width="597.486" height="491.393" viewBox="0 0 597.486 491.393">
  <g id="undraw_Real_time_sync_re_nky7" transform="translate(0 -0.004)">
    <path id="Path_361" data-name="Path 361" d="M676.874,533.114c-81.883,0-148.5-66.617-148.5-148.5s66.617-148.5,148.5-148.5a149.972,149.972,0,0,1,25.843,2.241.82.82,0,0,1-.3,1.613,148.319,148.319,0,0,0-25.542-2.213c-80.978,0-146.859,65.88-146.859,146.859S595.9,531.473,676.874,531.473s146.859-65.88,146.859-146.859a146.488,146.488,0,0,0-38.311-98.92.821.821,0,1,1,1.213-1.106,148.125,148.125,0,0,1,38.739,100.025C825.373,466.5,758.757,533.114,676.874,533.114Z" transform="translate(-288.395 -165.896)" fill="#e4e4e4"/>
    <circle id="Ellipse_16" data-name="Ellipse 16" cx="29.381" cy="29.381" r="29.381" transform="translate(424.574 62.388)" fill="#ff8c00"/>
    <path id="Path_362" data-name="Path 362" d="M781.827,274.326a3.267,3.267,0,0,1-2.614-1.308L771.2,262.33a3.268,3.268,0,0,1,5.229-3.922l5.244,6.991,13.469-20.2a3.268,3.268,0,1,1,5.439,3.626L784.546,272.87a3.27,3.27,0,0,1-2.629,1.454Z" transform="translate(-331.879 -167.265)" fill="#fff"/>
    <path id="Path_363" data-name="Path 363" d="M667.037,346.2,621.73,220.158l1.149-.413-8.333-23.183-1.149.413-13.911-38.7a11.7,11.7,0,0,0-14.963-7.05l-81.907,29.442a11.7,11.7,0,0,0-7.051,14.963l9.7,26.984-1.815.7,6.192,16.078,1.453-.56,1.286,3.576-1.547.6,6.192,16.078,1.185-.456,44.907,124.932a11.675,11.675,0,0,0,14.963,7.051l81.906-29.442A11.71,11.71,0,0,0,667.037,346.2Z" transform="translate(-282.38 -150.529)" fill="#3f3d56"/>
    <path id="Path_364" data-name="Path 364" d="M574.875,387.424a5.616,5.616,0,0,1-5.271-3.712L501.339,193.8a5.6,5.6,0,0,1,3.378-7.17l17.427-6.264-.026.61a6.46,6.46,0,0,0,8.639,6.352l38.676-13.9a6.542,6.542,0,0,0,3.682-4.624,6.406,6.406,0,0,0-1.527-5.608l-.408-.454,18-6.471a5.612,5.612,0,0,1,7.17,3.379l65.13,181.19a14.888,14.888,0,0,1-8.965,19.024l-75.744,27.227a5.613,5.613,0,0,1-1.9.333Z" transform="translate(-283.482 -151.5)" fill="#fff"/>
    <circle id="Ellipse_17" data-name="Ellipse 17" cx="22.152" cy="22.152" r="22.152" transform="translate(262.568 56.921)" fill="#ff8c00"/>
    <path id="Path_365" data-name="Path 365" d="M632.456,285.347l-76.713,27.575a1.938,1.938,0,1,1-1.311-3.647L631.145,281.7a1.938,1.938,0,1,1,1.311,3.647Z" transform="translate(-292.844 -174.061)" fill="#e6e6e6"/>
    <path id="Path_366" data-name="Path 366" d="M615.956,306.657l-25.233,9.07a1.938,1.938,0,0,1-1.311-3.647l25.233-9.07a1.938,1.938,0,1,1,1.311,3.647Z" transform="translate(-299.125 -177.887)" fill="#e6e6e6"/>
    <path id="Path_367" data-name="Path 367" d="M623.271,327.008l-25.233,9.07a1.938,1.938,0,1,1-1.311-3.647l25.233-9.07a1.938,1.938,0,0,1,1.311,3.647Z" transform="translate(-300.439 -181.541)" fill="#e6e6e6"/>
    <path id="Path_368" data-name="Path 368" d="M627.018,337.432l-25.233,9.07a1.938,1.938,0,0,1-1.311-3.647l25.233-9.07a1.938,1.938,0,0,1,1.311,3.647Z" transform="translate(-301.111 -183.413)" fill="#e6e6e6"/>
    <path id="Path_369" data-name="Path 369" d="M630.617,310.49l-53.536,19.244a1.938,1.938,0,1,1-1.311-3.647l53.536-19.244a1.938,1.938,0,1,1,1.311,3.647Z" transform="translate(-296.675 -178.575)" fill="#e6e6e6"/>
    <path id="Path_370" data-name="Path 370" d="M626.788,362.158l-9.162,3.293a3.295,3.295,0,0,1-2.229-6.2l9.162-3.293a3.295,3.295,0,0,1,2.229,6.2Z" transform="translate(-303.63 -187.38)" fill="#ff8c00"/>
    <circle id="Ellipse_18" data-name="Ellipse 18" cx="1.274" cy="1.274" r="1.274" transform="translate(249.684 26.934)" fill="#fff"/>
    <path id="Path_389" data-name="Path 389" d="M871.491,615.414a18.257,18.257,0,0,1,7.831-10.756c.384-.245-.016-.827-.4-.583a18.99,18.99,0,0,0-8.127,11.209c-.114.441.581.568.695.13Z" transform="translate(-349.879 -231.957)" fill="#fff"/>
    <path id="Path_391" data-name="Path 391" d="M896.791,459.948,873.048,499.9l.9.476-8.04,15.244-1.674-.886-5.284,8.885,1.313.755-8.615,14.916-1.493-.861L772.683,668.816a14.993,14.993,0,0,1-20.527,5.226l-144.028-85.58a14.991,14.991,0,0,1-5.226-20.527L727.01,359.067a14.993,14.993,0,0,1,20.527-5.226l144.028,85.58A15,15,0,0,1,896.791,459.948Z" transform="translate(-301.401 -186.658)" fill="#3f3d56"/>
    <path id="Path_392" data-name="Path 392" d="M759.41,668.062,614.875,582.18a4.622,4.622,0,0,1-1.611-6.328L738.2,365.6a4.622,4.622,0,0,1,6.328-1.611l144.536,85.881a4.622,4.622,0,0,1,1.611,6.328L765.738,666.451a4.622,4.622,0,0,1-6.328,1.611Z" transform="translate(-303.522 -188.74)" fill="#fff"/>
    <circle id="Ellipse_19" data-name="Ellipse 19" cx="1.274" cy="1.274" r="1.274" transform="translate(513.985 212.314)" fill="#fff"/>
    <path id="Path_393" data-name="Path 393" d="M827.528,578.946,706.877,507.257a3.336,3.336,0,0,1,3.408-5.736L830.936,573.21a3.336,3.336,0,1,1-3.408,5.736Z" transform="translate(-320.154 -213.468)" fill="#e6e6e6"/>
    <path id="Path_394" data-name="Path 394" d="M786.529,575.935l-39.685-23.581a3.336,3.336,0,1,1,3.408-5.736L789.937,570.2a3.336,3.336,0,0,1-3.408,5.736Z" transform="translate(-327.331 -221.566)" fill="#e6e6e6"/>
    <path id="Path_395" data-name="Path 395" d="M767.511,607.942l-39.685-23.581a3.336,3.336,0,1,1,3.408-5.736l39.685,23.58a3.336,3.336,0,1,1-3.408,5.736Z" transform="translate(-323.916 -227.313)" fill="#e6e6e6"/>
    <path id="Path_396" data-name="Path 396" d="M757.77,624.336l-39.685-23.581a3.336,3.336,0,0,1,3.408-5.736l39.685,23.58a3.336,3.336,0,1,1-3.408,5.736Z" transform="translate(-322.167 -230.257)" fill="#e6e6e6"/>
    <path id="Path_397" data-name="Path 397" d="M794.54,602.045l-84.2-50.03a3.336,3.336,0,0,1,3.408-5.736l84.2,50.03a3.336,3.336,0,0,1-3.408,5.736Z" transform="translate(-320.776 -221.505)" fill="#e6e6e6"/>
    <path id="Path_398" data-name="Path 398" d="M790,688.1l-14.41-8.562a5.673,5.673,0,0,1,5.8-9.753l14.41,8.562A5.673,5.673,0,0,1,790,688.1Z" transform="translate(-332.288 -243.623)" fill="#ff8c00"/>
    <circle id="Ellipse_20" data-name="Ellipse 20" cx="29.536" cy="29.536" r="29.536" transform="translate(455.064 246.39)" fill="#ff8c00"/>
    <path id="Path_399" data-name="Path 399" d="M236.3,581.058H636v-231.4a6.547,6.547,0,0,0-6.54-6.54H242.838a6.547,6.547,0,0,0-6.54,6.54Z" transform="translate(-235.95 -185.109)" fill="#cacaca"/>
    <rect id="Rectangle_12" data-name="Rectangle 12" width="375.004" height="212.897" transform="translate(12.697 167.051)" fill="#fff"/>
    <path id="Path_400" data-name="Path 400" d="M235.874,625.5v28.555a9.014,9.014,0,0,0,9.015,9.015H392.415v56.355h-1.96a1.171,1.171,0,0,0-1.171,1.171v3.92a1.171,1.171,0,0,0,1.171,1.171h91.583a1.171,1.171,0,0,0,1.171-1.171V720.6a1.171,1.171,0,0,0-1.171-1.171h-1.96V663.072H627.606a9.014,9.014,0,0,0,9.014-9.015V625.5Z" transform="translate(-235.874 -235.814)" fill="#3f3d56"/>
    <path id="Path_401" data-name="Path 401" d="M602.5,439.075H424.909a4.221,4.221,0,1,1,0-8.442H602.5a4.221,4.221,0,1,1,0,8.442Z" transform="translate(-269.059 -200.824)" fill="#e6e6e6"/>
    <path id="Path_402" data-name="Path 402" d="M555.951,462.3H497.537a4.221,4.221,0,1,1,0-8.443h58.414a4.221,4.221,0,1,1,0,8.443Z" transform="translate(-282.1 -204.994)" fill="#e6e6e6"/>
    <path id="Path_403" data-name="Path 403" d="M555.951,509.412H497.537a4.221,4.221,0,1,1,0-8.443h58.414a4.221,4.221,0,1,1,0,8.443Z" transform="translate(-282.1 -213.453)" fill="#e6e6e6"/>
    <path id="Path_404" data-name="Path 404" d="M555.951,533.542H497.537a4.221,4.221,0,0,1,0-8.442h58.414a4.221,4.221,0,0,1,0,8.442Z" transform="translate(-282.1 -217.786)" fill="#e6e6e6"/>
    <path id="Path_405" data-name="Path 405" d="M581.541,485.526H457.607a4.221,4.221,0,1,1,0-8.442H581.541a4.221,4.221,0,1,1,0,8.442Z" transform="translate(-274.931 -209.164)" fill="#e6e6e6"/>
    <path id="Path_406" data-name="Path 406" d="M632.471,581.653h-21.21a7.178,7.178,0,0,1,0-14.356h21.21a7.178,7.178,0,0,1,0,14.356Z" transform="translate(-301.99 -225.363)" fill="#ff8c00"/>
    <circle id="Ellipse_21" data-name="Ellipse 21" cx="36.92" cy="36.92" r="36.92" transform="translate(63.088 230.352)" fill="#ff8c00"/>
    <path id="Path_407" data-name="Path 407" d="M767.917,749.043H236.851a.977.977,0,0,1,0-1.954H767.917a.977.977,0,0,1,0,1.954Z" transform="translate(-235.874 -257.647)" fill="#cacaca"/>
    <circle id="Ellipse_22" data-name="Ellipse 22" cx="1.391" cy="1.391" r="1.391" transform="translate(198.633 159.746)" fill="#fff"/>
  </g>
</svg>
