<svg xmlns="http://www.w3.org/2000/svg" xmlns:xlink="http://www.w3.org/1999/xlink" width="250.21" height="172.705" viewBox="0 0 250.21 172.705">
  <defs>
    <linearGradient id="linear-gradient" x1="0.5" y1="1" x2="0.5" gradientUnits="objectBoundingBox">
      <stop offset="0" stop-color="gray" stop-opacity="0.251"/>
      <stop offset="0.54" stop-color="gray" stop-opacity="0.122"/>
      <stop offset="1" stop-color="gray" stop-opacity="0.102"/>
    </linearGradient>
  </defs>
  <g id="signup_for_free" transform="translate(0.001 0)">
    <path id="Path_408" data-name="Path 408" d="M31.641,223.1c4.423-7.224,14.424-5.965,21.516-2.194s14.169,9.4,21.974,8.319c6.581-.913,11.978-6.651,14.893-13.272s3.771-14.086,4.591-21.4q1.547-13.779,3.091-27.575c.377-3.363.823-6.912,2.714-9.573,2.5-3.51,7.079-4.589,11-3.534s7.259,3.885,10.117,7.042c9.157,10.109,14.345,23.773,22.35,35.023,1.63,2.29,3.47,4.554,5.905,5.66,3.51,1.59,7.54.465,10.969-1.305,11.188-5.767,18.7-17.537,26.09-28.518,3.593-5.337,7.974-11.045,13.952-11.627,6.289-.625,11.75,4.734,15.446,10.409,11.864,18.261,14.406,43.19,28.738,59.116a23.3,23.3,0,0,0,6,5.026,15.5,15.5,0,0,0,2.325,1.02c12.5,4.328,16.672,21.7,7.424,32q-.3.329-.61.658a10.229,10.229,0,0,1-4.785,3.253,10.45,10.45,0,0,1-5.221-.559c-10.938-3.192-21.744-8.071-33.053-7.834-11,.219-21.441,5.3-32.322,7.132-7.316,1.231-14.759.985-22.157.72Q125.635,269.763,88.7,268c-12.223-.562-24.451-1.1-36.672-1.722-9.415-.489-15.413-1.566-16.506-12.493C34.561,244.215,25.97,232.367,31.641,223.1Z" transform="translate(-29.72 -132.18)" fill="#ff8c00" opacity="0.1"/>
    <ellipse id="Ellipse_23" data-name="Ellipse 23" cx="59.228" cy="8.277" rx="59.228" ry="8.277" transform="translate(114.053 156.151)" fill="#30374e"/>
    <path id="Path_409" data-name="Path 409" d="M178.46,642.749a5.512,5.512,0,0,1,4.793,1.288s-1.22,1.1-4.089-.118Z" transform="translate(-145.831 -514.028)" fill="#ff8c00"/>
    <path id="Path_410" data-name="Path 410" d="M173.481,643a5.489,5.489,0,0,0-.627,4.925s1.483-.713,1.441-3.828Z" transform="translate(-141.173 -514.308)" fill="#ff8c00"/>
    <path id="Path_411" data-name="Path 411" d="M168.2,623.222s1.029-2.227,5.923.465a2.635,2.635,0,0,1-2.606,1.509A3.185,3.185,0,0,1,168.2,623.222Z" transform="translate(-137.822 -498.193)" fill="#ff8c00"/>
    <path id="Path_412" data-name="Path 412" d="M158.532,625.679s-2.45-.114-2.312,5.467a2.631,2.631,0,0,0,2.54-1.619A3.182,3.182,0,0,0,158.532,625.679Z" transform="translate(-128.466 -500.786)" fill="#ff8c00"/>
    <path id="Path_413" data-name="Path 413" d="M159,597.781s1.1-3.879,6.246-1.509c0,0-.9,3.552-5.66,2.773Z" transform="translate(-130.64 -477.232)" fill="#ff8c00"/>
    <path id="Path_414" data-name="Path 414" d="M150.29,573.334s2.321-4,7.127-.755c0,0-1.358,3.7-6.645,2.1Z" transform="translate(-123.841 -458.344)" fill="#ff8c00"/>
    <path id="Path_415" data-name="Path 415" d="M146.15,549.686s2.771-3.718,7.538-.507c0,0-2.646,3.277-7.478,1.4Z" transform="translate(-120.609 -440.049)" fill="#ff8c00"/>
    <path id="Path_416" data-name="Path 416" d="M142.41,525.494s2.8-3.874,7.369-.691c0,0-3.22,3.473-7.312,1.551Z" transform="translate(-117.69 -421.06)" fill="#ff8c00"/>
    <path id="Path_417" data-name="Path 417" d="M142.23,500.7s2.885-4.942,7.163-2.012c0,0-3.163,4.293-7.1,2.909Z" transform="translate(-117.549 -400.926)" fill="#ff8c00"/>
    <path id="Path_418" data-name="Path 418" d="M144,476.438s3.071-4.914,7.259-1.575c0,0-3.751,4.333-7.211,2.446Z" transform="translate(-118.931 -382.147)" fill="#ff8c00"/>
    <path id="Path_419" data-name="Path 419" d="M147.279,451.418s3.729-4.675,7.36-3.152c0,0-3.878,4.958-7.459,4.335Z" transform="translate(-121.413 -362.054)" fill="#ff8c00"/>
    <path id="Path_420" data-name="Path 420" d="M151.685,426.755s4.287-5.7,7.1-4.085c0,0-3.139,4.407-7.367,5.122Z" transform="translate(-124.723 -342.086)" fill="#ff8c00"/>
    <path id="Path_421" data-name="Path 421" d="M158.611,403.517s3.767-4.677,6.8-3.782c0,0-3.17,4.8-7.261,5.195Z" transform="translate(-129.977 -324.319)" fill="#ff8c00"/>
    <path id="Path_422" data-name="Path 422" d="M166.624,379.958s4.208-4.519,6.21-3.909c0,0-2.929,4.905-6.344,4.859Z" transform="translate(-136.487 -305.874)" fill="#ff8c00"/>
    <path id="Path_423" data-name="Path 423" d="M173.87,354.525s3.53-5.3,5.664-5.046c0,0-2.042,4.648-5.629,5.557Z" transform="translate(-142.248 -285.17)" fill="#ff8c00"/>
    <path id="Path_424" data-name="Path 424" d="M180.657,328.628s3.157-4.093,5-4.208c0,0-2.349,5.34-5.061,5.484Z" transform="translate(-147.502 -265.615)" fill="#ff8c00"/>
    <path id="Path_425" data-name="Path 425" d="M183.752,294.968l2.76-8.268s.658,7.261-3.071,9.788Z" transform="translate(-149.719 -236.17)" fill="#ff8c00"/>
    <path id="Path_426" data-name="Path 426" d="M187.212,257.637s.1-6.754-.292-7.277c0,0,2.736,5.427.469,10.247Z" transform="translate(-152.435 -207.802)" fill="#ff8c00"/>
    <path id="Path_427" data-name="Path 427" d="M139.024,604.354s-3.567-1.891-5.434,3.451c0,0,3.181,1.816,5.923-2.152Z" transform="translate(-110.805 -483.886)" fill="#ff8c00"/>
    <path id="Path_428" data-name="Path 428" d="M128.37,578.792s-4.326-1.634-6,3.922c0,0,3.394,2.007,6.474-2.58Z" transform="translate(-102.046 -464.01)" fill="#ff8c00"/>
    <path id="Path_429" data-name="Path 429" d="M118.538,552.928s-3.245-3.315-7.538.511c0,0,3.058,2.893,7.6.393Z" transform="translate(-93.17 -442.954)" fill="#ff8c00"/>
    <path id="Path_430" data-name="Path 430" d="M115.625,527.276s-3.291-3.468-7.4.3c0,0,3.655,3.012,7.459.559Z" transform="translate(-91.008 -422.833)" fill="#ff8c00"/>
    <path id="Path_431" data-name="Path 431" d="M117.423,500.06s-2.492-5.149-6.983-2.56c0,0,2.821,4.526,6.853,3.453Z" transform="translate(-92.733 -400.158)" fill="#ff8c00"/>
    <path id="Path_432" data-name="Path 432" d="M120.143,474.4s-2.485-5.243-7.033-2.428c0,0,3.216,4.741,6.875,3.275Z" transform="translate(-94.817 -380.153)" fill="#ff8c00"/>
    <path id="Path_433" data-name="Path 433" d="M131.316,441.944s-1.237-5.846-5.166-6.114c0,0,1.246,6.171,4.719,7.213Z" transform="translate(-104.997 -352.585)" fill="#ff8c00"/>
    <path id="Path_434" data-name="Path 434" d="M138.68,417s-.805-7.088-4.05-7.121c0,0,.472,5.39,3.753,8.15Z" transform="translate(-111.616 -332.328)" fill="#ff8c00"/>
    <path id="Path_435" data-name="Path 435" d="M145.741,393.712s-1.362-5.848-4.491-6.362c0,0,.768,5.7,4.284,7.836Z" transform="translate(-116.784 -314.74)" fill="#ff8c00"/>
    <path id="Path_436" data-name="Path 436" d="M159.884,369.467s-.439-6.158-2.391-6.937c0,0-.792,5.655,1.9,7.761Z" transform="translate(-129.379 -295.365)" fill="#ff8c00"/>
    <path id="Path_437" data-name="Path 437" d="M164.857,346.93s-.691-6.329-2.7-7.09c0,0-.329,5.065,2.435,7.524Z" transform="translate(-133.095 -277.652)" fill="#ff8c00"/>
    <path id="Path_438" data-name="Path 438" d="M174.919,323.486s-.36-5.157-1.832-6.276c0,0-1,5.745,1.174,7.362Z" transform="translate(-141.456 -259.987)" fill="#ff8c00"/>
    <path id="Path_439" data-name="Path 439" d="M176.185,293.038l-1.93-8.5s-1.367,7.16,2.1,10.043Z" transform="translate(-142.341 -234.484)" fill="#ff8c00"/>
    <path id="Path_440" data-name="Path 440" d="M168.976,262.251s-3.868-5.546-3.837-6.191c0,0,.777,6.028,5.355,8.751Z" transform="translate(-135.433 -212.251)" fill="#ff8c00"/>
    <path id="Path_441" data-name="Path 441" d="M164.929,245.946s-3.83-7.983-5.359-8.556a10.423,10.423,0,0,1,5.618,8.292Z" transform="translate(-131.085 -197.677)" fill="#ff8c00"/>
    <path id="Path_442" data-name="Path 442" d="M179.759,290.571l-.219-.055c2.161-9.214,2.466-15.023.856-16.356l.149-.18C182.243,275.393,181.975,281.132,179.759,290.571Z" transform="translate(-146.674 -226.24)" fill="#444053"/>
    <path id="Path_443" data-name="Path 443" d="M151.05,368.818l-.34-.094c.239-.847.5-1.709.774-2.558,2.413-7.4,4.418-14.259,5.649-19.511l.279-.165c-1.233,5.265-3.183,12.379-5.592,19.783C151.546,367.12,151.287,367.975,151.05,368.818Z" transform="translate(-124.169 -282.844)" fill="#444053"/>
    <path id="Path_444" data-name="Path 444" d="M153.484,494.757a45.71,45.71,0,0,1-8.582-13.215,50.976,50.976,0,0,1-4.083-15.525,59.72,59.72,0,0,1,2.194-21.257l.281.29c-4.387,15.643-1.358,28.593,2.025,36.284a45.33,45.33,0,0,0,8.49,13.088Z" transform="translate(-116.282 -359.556)" fill="#444053"/>
    <path id="Path_445" data-name="Path 445" d="M223.53,558.226a3.323,3.323,0,0,1,2.9.779s-.739.658-2.472-.072Z" transform="translate(-181.014 -448.079)" fill="#ff8c00"/>
    <path id="Path_446" data-name="Path 446" d="M220.538,558.39a3.319,3.319,0,0,0-.377,2.977s.9-.439.877-2.314Z" transform="translate(-178.213 -448.259)" fill="#ff8c00"/>
    <path id="Path_447" data-name="Path 447" d="M217.34,546.423s.621-1.345,3.576.283a1.592,1.592,0,0,1-1.575.91A1.922,1.922,0,0,1,217.34,546.423Z" transform="translate(-176.182 -438.509)" fill="#ff8c00"/>
    <path id="Path_448" data-name="Path 448" d="M211.488,547.91s-1.483-.068-1.4,3.3a1.592,1.592,0,0,0,1.536-.978A1.924,1.924,0,0,0,211.488,547.91Z" transform="translate(-170.518 -440.077)" fill="#ff8c00"/>
    <path id="Path_449" data-name="Path 449" d="M211.75,531.036s.673-2.345,3.78-.917c0,0-.542,2.148-3.42,1.676Z" transform="translate(-171.818 -425.83)" fill="#ff8c00"/>
    <path id="Path_450" data-name="Path 450" d="M206.51,516.273s1.4-2.413,4.308-.456c0,0-.823,2.238-4.017,1.266Z" transform="translate(-167.728 -414.427)" fill="#ff8c00"/>
    <path id="Path_451" data-name="Path 451" d="M204,501.966s1.676-2.249,4.556-.307a3.912,3.912,0,0,1-4.519.849Z" transform="translate(-165.769 -403.357)" fill="#ff8c00"/>
    <path id="Path_452" data-name="Path 452" d="M201.74,487.343a3.063,3.063,0,0,1,4.455-.417,3.978,3.978,0,0,1-4.42.937Z" transform="translate(-164.004 -391.879)" fill="#ff8c00"/>
    <path id="Path_453" data-name="Path 453" d="M201.64,472.349s1.755-2.986,4.328-1.215c0,0-1.913,2.6-4.293,1.755Z" transform="translate(-163.926 -379.706)" fill="#ff8c00"/>
    <path id="Path_454" data-name="Path 454" d="M202.68,457.675s1.862-2.973,4.387-.961c0,0-2.268,2.619-4.361,1.479Z" transform="translate(-164.738 -368.342)" fill="#ff8c00"/>
    <path id="Path_455" data-name="Path 455" d="M204.7,442.567s2.253-2.826,4.449-1.9c0,0-2.345,3-4.5,2.619Z" transform="translate(-166.276 -356.213)" fill="#ff8c00"/>
    <path id="Path_456" data-name="Path 456" d="M207.35,427.65s2.591-3.446,4.293-2.47c0,0-1.9,2.665-4.453,3.1Z" transform="translate(-168.259 -344.136)" fill="#ff8c00"/>
    <path id="Path_457" data-name="Path 457" d="M211.562,413.62s2.277-2.828,4.115-2.286c0,0-1.915,2.9-4.387,3.139Z" transform="translate(-171.459 -333.409)" fill="#ff8c00"/>
    <path id="Path_458" data-name="Path 458" d="M216.381,399.361s2.543-2.731,3.753-2.363c0,0-1.768,2.964-3.835,2.937Z" transform="translate(-175.37 -322.245)" fill="#ff8c00"/>
    <path id="Path_459" data-name="Path 459" d="M220.76,383.976s2.134-3.2,3.424-3.054c0,0-1.233,2.81-3.4,3.361Z" transform="translate(-178.852 -309.718)" fill="#ff8c00"/>
    <path id="Path_460" data-name="Path 460" d="M224.875,368.325s1.909-2.475,3.025-2.545c0,0-1.422,3.229-3.06,3.31Z" transform="translate(-182.037 -297.902)" fill="#ff8c00"/>
    <path id="Path_461" data-name="Path 461" d="M226.707,347.993,228.372,343s.395,4.387-1.862,5.923Z" transform="translate(-183.34 -280.119)" fill="#ff8c00"/>
    <path id="Path_462" data-name="Path 462" d="M228.828,325.408a29.076,29.076,0,0,0-.178-4.4s1.654,3.28.283,6.2Z" transform="translate(-185.011 -262.953)" fill="#ff8c00"/>
    <path id="Path_463" data-name="Path 463" d="M199.671,535.018s-2.154-1.145-3.291,2.084c0,0,1.924,1.1,3.582-1.3Z" transform="translate(-159.82 -429.86)" fill="#ff8c00"/>
    <path id="Path_464" data-name="Path 464" d="M193.258,519.519s-2.617-.987-3.628,2.371c0,0,2.051,1.213,3.914-1.558Z" transform="translate(-154.551 -417.809)" fill="#ff8c00"/>
    <path id="Path_465" data-name="Path 465" d="M187.306,503.923s-1.959-2-4.556.307a3.894,3.894,0,0,0,4.594.237Z" transform="translate(-149.18 -405.111)" fill="#ff8c00"/>
    <path id="Path_466" data-name="Path 466" d="M185.551,488.421s-1.99-2.1-4.471.182a3.982,3.982,0,0,0,4.506.338Z" transform="translate(-147.877 -392.952)" fill="#ff8c00"/>
    <path id="Path_467" data-name="Path 467" d="M186.633,471.925s-1.507-3.113-4.223-1.549c0,0,1.707,2.736,4.144,2.088Z" transform="translate(-148.915 -379.209)" fill="#ff8c00"/>
    <path id="Path_468" data-name="Path 468" d="M188.258,456.44s-1.5-3.17-4.258-1.468c0,0,1.944,2.867,4.157,1.974Z" transform="translate(-150.156 -367.136)" fill="#ff8c00"/>
    <path id="Path_469" data-name="Path 469" d="M195.034,436.846s-.748-3.536-3.124-3.7c0,0,.752,3.729,2.852,4.359Z" transform="translate(-156.331 -350.493)" fill="#ff8c00"/>
    <path id="Path_470" data-name="Path 470" d="M199.457,421.746s-.483-4.284-2.457-4.306c0,0,.285,3.26,2.268,4.929Z" transform="translate(-160.304 -338.229)" fill="#ff8c00"/>
    <path id="Path_471" data-name="Path 471" d="M203.754,407.668s-.823-3.536-2.714-3.848c0,0,.465,3.446,2.591,4.736Z" transform="translate(-163.458 -327.597)" fill="#ff8c00"/>
    <path id="Path_472" data-name="Path 472" d="M212.308,393.014s-.27-3.729-1.443-4.194c0,0-.48,3.42,1.145,4.692Z" transform="translate(-171.075 -315.888)" fill="#ff8c00"/>
    <path id="Path_473" data-name="Path 473" d="M215.316,379.387s-.417-3.826-1.632-4.287c0,0-.2,3.071,1.472,4.55Z" transform="translate(-173.322 -305.177)" fill="#ff8c00"/>
    <path id="Path_474" data-name="Path 474" d="M221.428,365.215s-.219-3.117-1.1-3.8c0,0-.608,3.475.709,4.451Z" transform="translate(-178.408 -294.498)" fill="#ff8c00"/>
    <path id="Path_475" data-name="Path 475" d="M222.184,346.808l-1.167-5.138s-.827,4.33,1.268,6.072Z" transform="translate(-178.927 -279.081)" fill="#ff8c00"/>
    <path id="Path_476" data-name="Path 476" d="M217.808,328.2a29.092,29.092,0,0,1-2.319-3.742s.467,3.644,3.236,5.289Z" transform="translate(-174.738 -265.646)" fill="#ff8c00"/>
    <path id="Path_477" data-name="Path 477" d="M215.33,318.356s-2.317-4.826-3.24-5.166a6.3,6.3,0,0,1,3.4,5.015Z" transform="translate(-172.084 -256.849)" fill="#ff8c00"/>
    <path id="Path_478" data-name="Path 478" d="M224.3,345.31l-.138-.033c1.316-5.57,1.492-9.082.518-9.887l.09-.11C225.8,336.136,225.639,339.606,224.3,345.31Z" transform="translate(-181.506 -274.093)" fill="#444053"/>
    <path id="Path_479" data-name="Path 479" d="M206.966,392.651l-.206-.059c.145-.511.3-1.031.469-1.536,1.454-4.473,2.67-8.621,3.413-11.8l.169-.1c-.746,3.181-1.924,7.485-3.381,11.962C207.265,391.629,207.109,392.14,206.966,392.651Z" transform="translate(-167.923 -308.347)" fill="#444053"/>
    <path id="Path_480" data-name="Path 480" d="M208.432,468.757a27.672,27.672,0,0,1-5.188-7.99,30.871,30.871,0,0,1-2.468-9.385,35.99,35.99,0,0,1,1.329-12.853l.169.176a32.655,32.655,0,0,0,1.224,21.937,27.268,27.268,0,0,0,5.133,7.911Z" transform="translate(-163.15 -354.693)" fill="#444053"/>
    <path id="Path_481" data-name="Path 481" d="M183.26,513.215a8.391,8.391,0,0,0-1.645.469c-11.833,4.725-11.635,35.657-11.635,35.657H166.5a219.928,219.928,0,0,0-5.877-32.213c-4.306-17.039,13.355-32.309,16.942-35.2.4-.322.627-.494.627-.494C195.977,487.967,183.26,513.215,183.26,513.215Z" transform="translate(-131.38 -388.182)" fill="#afc0e0"/>
    <path id="Path_482" data-name="Path 482" d="M179.522,481.983c-.41-.189-.834-.369-1.283-.533,0,0-.219.171-.627.494-3.587,2.9-21.248,18.166-16.942,35.2a218.827,218.827,0,0,1,5.866,32.208h1.959a218.118,218.118,0,0,0-5.877-32.213C158.328,500.184,175.819,484.971,179.522,481.983Z" transform="translate(-131.419 -388.197)" fill="#fff" opacity="0.2"/>
    <path id="Path_483" data-name="Path 483" d="M437.512,517.133a217.473,217.473,0,0,0-5.87,32.208h-3.49s.219-32.327-12.445-35.935a6.928,6.928,0,0,0-.836-.2s-12.724-25.247,5.072-31.78c0,0,.18.134.5.395C423.744,484.464,441.867,499.9,437.512,517.133Z" transform="translate(-326.94 -388.182)" fill="#afc0e0"/>
    <path id="Path_484" data-name="Path 484" d="M245.939,513.23a8.391,8.391,0,0,0-1.645.469,214.812,214.812,0,0,1-4.054-31.756c.4-.323.627-.494.627-.494C258.656,487.983,245.939,513.23,245.939,513.23Z" transform="translate(-194.059 -388.197)" opacity="0.1"/>
    <path id="Path_485" data-name="Path 485" d="M420.477,481.875a197.652,197.652,0,0,1-4.741,31.59,6.916,6.916,0,0,0-.836-.2s-12.724-25.248,5.072-31.78C419.966,481.48,420.146,481.614,420.477,481.875Z" transform="translate(-326.964 -388.227)" opacity="0.1"/>
    <path id="Path_486" data-name="Path 486" d="M282.459,186.18q-1.843,7.27-4.319,14.917s-7.836,8.163-26.763,0a143.562,143.562,0,0,1-3.971-14.393c-4.578-19.926-10.069-57.9,1.63-96.9A145.17,145.17,0,0,1,263.773,56.36S273.768,67.835,281.1,89.8,293.108,144.219,282.459,186.18Z" transform="translate(-195.459 -56.36)" fill="#e3e8f4"/>
    <circle id="Ellipse_24" data-name="Ellipse 24" cx="15.714" cy="15.714" r="15.714" transform="translate(54.191 48.694)" fill="#afc0e0"/>
    <path id="Path_487" data-name="Path 487" d="M319.876,310.352a11.144,11.144,0,0,1-18.208,8.619,11.26,11.26,0,0,1-2.088-2.266,10.965,10.965,0,0,1-.72-1.182,11.122,11.122,0,0,1-1.27-5.171v-.265a11.157,11.157,0,0,1,8.117-10.468,11.525,11.525,0,0,1,2.685-.408h.333A11.144,11.144,0,0,1,319.876,310.352Z" transform="translate(-238.827 -245.936)" fill="#ff8c00"/>
    <path id="Path_488" data-name="Path 488" d="M305.977,89.8c-17.828,8.536-32.077,0-32.077,0A145.168,145.168,0,0,1,288.648,56.36S298.643,67.835,305.977,89.8Z" transform="translate(-220.334 -56.36)" fill="#afc0e0"/>
    <path id="Path_489" data-name="Path 489" d="M301.542,648.14q-1.25,4.923-2.786,10.014-.728,2.428-1.536,4.9s-7.836,8.163-26.763,0c0,0-.614-1.731-1.536-4.9-.689-2.391-1.547-5.6-2.442-9.5a47.486,47.486,0,0,0,17.047,3.008A46.97,46.97,0,0,0,301.542,648.14Z" transform="translate(-214.542 -518.32)" fill="#afc0e0"/>
    <path id="Path_490" data-name="Path 490" d="M307.445,693.79q-.728,2.428-1.536,4.9s-7.836,8.163-26.763,0c0,0-.614-1.731-1.536-4.9C277.608,693.79,296.9,699.34,307.445,693.79Z" transform="translate(-223.231 -553.956)" fill="#e3e8f4"/>
    <path id="Path_491" data-name="Path 491" d="M305.729,299.548l-.024.018-8.095,10.451v.265a11.122,11.122,0,0,0,1.27,5.171l9.538-16.312Z" transform="translate(-238.843 -245.881)" fill="#fff" opacity="0.2"/>
    <path id="Path_492" data-name="Path 492" d="M315.378,341.1l-6.629,9.927a11.26,11.26,0,0,1-2.088-2.266l7.9-8.477Z" transform="translate(-245.908 -277.996)" fill="#fff" opacity="0.2"/>
    <path id="Path_493" data-name="Path 493" d="M255.571,201.1a143.786,143.786,0,0,1-3.971-14.393c-4.578-19.928-10.069-57.9,1.63-96.9a145.7,145.7,0,0,1,12.91-30.293c-1.485-2.082-2.413-3.144-2.413-3.144a145.155,145.155,0,0,0-14.742,33.437c-11.7,39-6.208,76.973-1.63,96.9a143.786,143.786,0,0,0,3.971,14.393c7.478,3.223,13.224,3.9,17.44,3.538A41.548,41.548,0,0,1,255.571,201.1Z" transform="translate(-195.42 -56.368)" fill="#fff" opacity="0.2"/>
    <path id="Path_494" data-name="Path 494" d="M966.7,619.43s10.253-12.759,9.573-25.537a24.8,24.8,0,0,1,4.067-15.15,41.722,41.722,0,0,1,4.826-5.923" transform="translate(-761.154 -459.523)" fill="none" stroke="#535461" stroke-miterlimit="10" stroke-width="2"/>
    <path id="Path_495" data-name="Path 495" d="M1048.213,528.459c-.733,1.779.364,8.266.364,8.266s5.346-3.835,6.079-5.614a3.484,3.484,0,0,0-6.443-2.652Z" transform="translate(-824.588 -423.209)" fill="#ff8c00"/>
    <path id="Path_496" data-name="Path 496" d="M1006.118,556.407c.353,1.891,4.8,6.739,4.8,6.739s2.413-6.123,2.051-8.016a3.484,3.484,0,0,0-6.851,1.277Z" transform="translate(-791.878 -443.492)" fill="#ff8c00"/>
    <path id="Path_497" data-name="Path 497" d="M972.777,627.789c1.259,1.454,7.546,3.4,7.546,3.4s-1.018-6.5-2.277-7.957a3.483,3.483,0,1,0-5.266,4.561Z" transform="translate(-765.236 -497.934)" fill="#ff8c00"/>
    <path id="Path_498" data-name="Path 498" d="M964.051,693.116c.994,1.648,6.862,4.622,6.862,4.622s.1-6.581-.9-8.227a3.485,3.485,0,0,0-5.965,3.6Z" transform="translate(-758.693 -549.302)" fill="#ff8c00"/>
    <path id="Path_499" data-name="Path 499" d="M1029,592.153c-1.786.713-8.262-.45-8.262-.45s3.887-5.307,5.675-6.022a3.485,3.485,0,0,1,2.586,6.471Z" transform="translate(-803.339 -469.368)" fill="#ff8c00"/>
    <path id="Path_500" data-name="Path 500" d="M1018.248,665.572c-1.917.147-7.748-2.9-7.748-2.9s5.3-3.9,7.215-4.05a3.485,3.485,0,1,1,.533,6.951Z" transform="translate(-795.345 -526.495)" fill="#ff8c00"/>
    <path id="Path_501" data-name="Path 501" d="M994.768,736.419c-1.867.469-8.128-1.549-8.128-1.549s4.561-4.741,6.428-5.208a3.484,3.484,0,0,1,1.7,6.757Z" transform="translate(-776.719 -581.876)" fill="#ff8c00"/>
    <path id="Path_502" data-name="Path 502" d="M1048.213,528.459c-.733,1.779.364,8.266.364,8.266s5.346-3.835,6.079-5.614a3.484,3.484,0,0,0-6.443-2.652Z" transform="translate(-824.588 -423.209)" opacity="0.25"/>
    <path id="Path_503" data-name="Path 503" d="M1006.118,556.407c.353,1.891,4.8,6.739,4.8,6.739s2.413-6.123,2.051-8.016a3.484,3.484,0,0,0-6.851,1.277Z" transform="translate(-791.878 -443.492)" opacity="0.25"/>
    <path id="Path_504" data-name="Path 504" d="M972.777,627.789c1.259,1.454,7.546,3.4,7.546,3.4s-1.018-6.5-2.277-7.957a3.483,3.483,0,1,0-5.266,4.561Z" transform="translate(-765.236 -497.934)" opacity="0.25"/>
    <path id="Path_505" data-name="Path 505" d="M964.051,693.116c.994,1.648,6.862,4.622,6.862,4.622s.1-6.581-.9-8.227a3.485,3.485,0,0,0-5.965,3.6Z" transform="translate(-758.693 -549.302)" opacity="0.25"/>
    <path id="Path_506" data-name="Path 506" d="M1029,592.153c-1.786.713-8.262-.45-8.262-.45s3.887-5.307,5.675-6.022a3.485,3.485,0,0,1,2.586,6.471Z" transform="translate(-803.339 -469.368)" opacity="0.25"/>
    <path id="Path_507" data-name="Path 507" d="M1018.248,665.572c-1.917.147-7.748-2.9-7.748-2.9s5.3-3.9,7.215-4.05a3.485,3.485,0,1,1,.533,6.951Z" transform="translate(-795.345 -526.495)" opacity="0.25"/>
    <path id="Path_508" data-name="Path 508" d="M994.768,736.419c-1.867.469-8.128-1.549-8.128-1.549s4.561-4.741,6.428-5.208a3.484,3.484,0,0,1,1.7,6.757Z" transform="translate(-776.719 -581.876)" opacity="0.25"/>
    <path id="Path_509" data-name="Path 509" d="M967.12,657.858s14.544-7.511,19.1-19.467a24.789,24.789,0,0,1,9.859-12.2,41.662,41.662,0,0,1,6.8-3.457" transform="translate(-761.481 -498.484)" fill="none" stroke="#535461" stroke-miterlimit="10" stroke-width="2"/>
    <path id="Path_510" data-name="Path 510" d="M1132.686,585c-1.391,1.332-3.016,7.707-3.016,7.707s6.441-1.34,7.832-2.67a3.487,3.487,0,1,0-4.815-5.046Z" transform="translate(-888.372 -468.269)" fill="#ff8c00"/>
    <path id="Path_511" data-name="Path 511" d="M1089.945,593.536c-.439,1.873,1.656,8.117,1.656,8.117s4.67-4.622,5.122-6.507a3.484,3.484,0,1,0-6.779-1.61Z" transform="translate(-857.315 -473.603)" fill="#ff8c00"/>
    <path id="Path_512" data-name="Path 512" d="M1030.4,645.272c.562,1.841,5.524,6.162,5.524,6.162s1.7-6.362,1.143-8.194a3.485,3.485,0,0,0-6.667,2.031Z" transform="translate(-810.759 -512.568)" fill="#ff8c00"/>
    <path id="Path_513" data-name="Path 513" d="M995.96,701.47c.241,1.911,4.4,7.007,4.4,7.007s2.755-5.973,2.512-7.884a3.484,3.484,0,0,0-6.912.878Z" transform="translate(-783.973 -556.888)" fill="#ff8c00"/>
    <path id="Path_514" data-name="Path 514" d="M1093.3,640.519c-1.924-.07-7.371-3.758-7.371-3.758s5.7-3.275,7.628-3.205a3.484,3.484,0,1,1-.257,6.963Z" transform="translate(-854.228 -506.935)" fill="#ff8c00"/>
    <path id="Path_515" data-name="Path 515" d="M1056.9,704.134c-1.814-.643-5.91-5.791-5.91-5.791s6.425-1.419,8.237-.777a3.484,3.484,0,1,1-2.328,6.568Z" transform="translate(-826.953 -556.773)" fill="#ff8c00"/>
    <path id="Path_516" data-name="Path 516" d="M1004.921,759.051c-1.9-.327-6.8-4.71-6.8-4.71s6.092-2.483,7.987-2.156a3.484,3.484,0,1,1-1.185,6.866Z" transform="translate(-785.681 -599.517)" fill="#ff8c00"/>
    <path id="Path_517" data-name="Path 517" d="M735.086,428.807l-11.274-16.35s-.219-4.047-.948-4.993-.158-3.049-.158-3.049.79-1.156.105-1.261-.105-2.683-.105-2.683l-.053-4.1s.632-3.949.105-4.888a1.551,1.551,0,0,1,.053-1.683s.632-2.262,0-2.839-.474-4.1-.316-6.888-1.108-4.363-1.108-4.785-4.168-4.521-4.168-4.888-2.632-1.893-4.214-2.314-2.371-.735-2.319-.945-2.477-1.051-2.477-1.051-2.213-.158-3.058-1.264-3.42-1.422-3.495-1.432c-.015-.072-.033-.147-.048-.219s-.033-.158-.048-.237c.2-.336.384-.678.551-1.031.05-.107.1-.219.145-.32a4.5,4.5,0,0,0,2.6-.805,3.534,3.534,0,0,0,1.261-2.521,5.526,5.526,0,0,0-.616-2.8c-.461-.948-1.139-1.928-.906-2.955.1-.439.369-.834.5-1.268a3.34,3.34,0,0,0-.38-2.49c-.4-.763-.954-1.435-1.4-2.174a8.489,8.489,0,0,1-1.112-3.071,4.8,4.8,0,0,0-.412-1.674,3.117,3.117,0,0,0-.924-.932,9.229,9.229,0,0,0-5.664-1.718,27.141,27.141,0,0,1-4.289.261,15.433,15.433,0,0,1-2.505-.658c-1.768-.522-3.806-.737-5.346.274s-2.152,3-3.194,4.556c-.921,1.378-2.273,2.532-2.975,3.988a.313.313,0,0,1,.022-.083,4.768,4.768,0,0,0-.393,1.062,7.565,7.565,0,0,0,.235,3.486,2.419,2.419,0,0,0,.851,1.558,5.066,5.066,0,0,0,1.841.362c-.022.1-.048.2-.07.3a12.044,12.044,0,0,0,8.356,14.04v.32a7.959,7.959,0,0,1-.055.9h0s-5.3-1.1-6.722-.351-4.216,1.316-4.638,1.733-1.474.105-2.413,2.578-1.053,4.993-2.266,6.142-1.843,1.946-1.9,2.788.158,1.051-.318,1.316-1.158,1.367-.948,1.788a1.5,1.5,0,0,1-.579,1.575,1.761,1.761,0,0,0-.739,1.577s-.316,1.158-1.053,1.419-1.213,2-1.213,2l-2.4,2.753-4.736-5.243a2,2,0,0,0-2.819-.145l-2.325,2.1a4.594,4.594,0,0,0-2.328,1.386,6,6,0,0,0-1.2,1.794l-1.275,1.145a3.236,3.236,0,0,0-.327,3.571l3.034,3.354.02.029a5.358,5.358,0,0,0-2.935,1.2c-4.53,3.995-4.585,7.678-3.9,9.356s6.428,8.15,6.428,8.15a25.684,25.684,0,0,0,8.154,6.645h0l-.037.037c-.094.1-.189.219-.281.329l-.079.1-.072.1-.086.127c-.024.033-.046.068-.068.1s-.061.1-.09.151l-.059.1c-.035.066-.072.134-.107.2l-.035.068c-.044.092-.088.186-.129.285-.015.035-.029.072-.044.107-.026.068-.055.138-.081.219s-.033.09-.048.136-.046.136-.068.206-.031.1-.044.147-.044.154-.064.233-.024.092-.037.143c-.029.121-.057.246-.081.377a.932.932,0,0,1-.026.149q-.026.132-.046.27c-.011.064-.018.127-.026.191s-.022.173-.033.261l-.02.2c0,.1-.018.2-.024.3a1.044,1.044,0,0,1-.011.184c0,.167-.018.333-.02.509-.105,6.142.254,7.044.254,7.044a3.412,3.412,0,0,0,2.8,2.1,3.575,3.575,0,0,0,.9-.048c2.74-.474,9.168-1.577,11.434-1.156a19.532,19.532,0,0,0,5.682-.461l.472-.09.329,1.044,1.042-.285.877.511.559.32c1.04,3.528,5.265,2.325,5.265,2.325l.992.575,10.17.263a20.834,20.834,0,0,0,3.6,1.729,3.344,3.344,0,0,0,.511.112,23.085,23.085,0,0,0,2.834.053c.779-.02,1.382-.053,1.382-.053s-.1-2.762-.252-5.853a83.337,83.337,0,0,0,9.42-.772c5.432-.954,7.7-5.892,8.531-8.531a24.832,24.832,0,0,1,.533,3.275,23.415,23.415,0,0,0,.845,2.839,9.592,9.592,0,0,0,1.158,2.1c4.006-1.367,1.582-3.416.737-4.311s.581-1.63.581-1.63,1.1-.735,1-1.419-.158-1.419,3.424-1.367S735.086,428.807,735.086,428.807ZM679.44,395.243a24.375,24.375,0,0,0,1,4.387,5.791,5.791,0,0,1,.118,1.731c-2.124-.169-4.335-.259-4.335-.259a.509.509,0,0,1,.114.27L676,401.3l-.485-.118,3.911-5.949Zm-7.748,12.329,3.674.584.309.048a12.091,12.091,0,0,0-.191,1.735c0,.055.083.121.2.2a4.73,4.73,0,0,0-.072.878c.059.292,1.777.919,3.747,1.441-.026.105-.053.206-.079.3h0c-1.74-.915-4.482-1.343-4.8-2.023s-9.652-3.949-9.652-3.949-.34-.18-.928-.465l2.457.465.676-.068a36.835,36.835,0,0,0,4.655.851Z" transform="translate(-508.768 -276.484)" fill="url(#linear-gradient)"/>
    <path id="Path_518" data-name="Path 518" d="M770.465,690.88S769,699.7,761.587,701.01s-32.173,1.044-32.173,1.044-14.154-2.036-19.272-14-8.409-16.714-4.021-16.922,28.047,7.992,29.4,8.095S771.77,661.056,770.465,690.88Z" transform="translate(-556.141 -536.268)" fill="#434175"/>
    <path id="Path_519" data-name="Path 519" d="M770.465,690.88S769,699.7,761.587,701.01s-32.173,1.044-32.173,1.044-14.154-2.036-19.272-14-8.409-16.714-4.021-16.922,28.047,7.992,29.4,8.095S771.77,661.056,770.465,690.88Z" transform="translate(-556.141 -536.268)" opacity="0.05"/>
    <path id="Path_520" data-name="Path 520" d="M703.1,758.313a3.387,3.387,0,0,0,2.773,2.086,3.606,3.606,0,0,0,.893-.048c2.716-.469,9.089-1.566,11.333-1.15a19.307,19.307,0,0,0,5.629-.456c1.185-.219,2.049-.439,2.049-.439s-2.088-6.945-2.352-7.154-9.4-5.693-9.4-5.693l-7.239-.52h-.022a3.8,3.8,0,0,0-2.453,1.441,7.7,7.7,0,0,0-1.465,4.929C702.745,757.424,703.1,758.313,703.1,758.313Z" transform="translate(-555.167 -593.885)" fill="#565387"/>
    <path id="Path_521" data-name="Path 521" d="M703.1,758.336a3.387,3.387,0,0,0,2.773,2.086,29.738,29.738,0,0,1-1.974-2.869l.037-5.065a8.9,8.9,0,0,1,2.852-7.518h-.022s-3.813.259-3.918,6.362S703.1,758.336,703.1,758.336Z" transform="translate(-555.17 -593.908)" opacity="0.05"/>
    <path id="Path_522" data-name="Path 522" d="M832.2,699.061l6.737-5.265,10.6-10.447s-1.145-.055-2.872-.129c-.439.274-1.634,1.136-1.678,2.194-.053,1.277-2.867.088-4.328.818s-8.617,9.889-9.872,9.83-2.244-.636-2.768.252c0,.02-.024.037-.037.057Z" transform="translate(-652.865 -545.704)" opacity="0.1"/>
    <path id="Path_523" data-name="Path 523" d="M709.6,746.386c.239.116.48.219.728.333,5.12,2.194,11.438,6.8,11.91,7.625.285.509,3.949,2.733,6.776,4.4,1.185-.219,2.049-.439,2.049-.439s-2.088-6.945-2.352-7.154-9.4-5.693-9.4-5.693l-7.239-.52h-.022A3.822,3.822,0,0,0,709.6,746.386Z" transform="translate(-560.454 -593.885)" opacity="0.1"/>
    <path id="Path_524" data-name="Path 524" d="M643.7,645.794c.678,1.672,6.362,8.1,6.362,8.1a24.968,24.968,0,0,0,8.722,6.893c5.12,2.194,11.438,6.8,11.908,7.625.3.537,4.387,2.994,7.257,4.684l.643.375,1.426.827.755.439s1.755-1.4,3.49-2.817,3.429-2.8,3.457-2.876c.05-.156.728-1.933.573-2.036-.081-.055-.439-.779-1.1-1.617a7.418,7.418,0,0,0-2.661-2.194,7.5,7.5,0,0,1-3.446-3.593s-.219-.167-.577-.386a6.987,6.987,0,0,0-2.347-1.046c-1.152-.145-3.291-2.494-3.291-2.494a6.45,6.45,0,0,1-2.038-2.141c-.548-1.145-8.648-6.708-9.4-7.222l19.636,12.609,4.7,3.021,6.737-5.265,10.6-10.447s-1.426-.07-3.51-.158c-5.153-.219-14.305-.573-15.461-.312a8.812,8.812,0,0,1-2.874.186,10.062,10.062,0,0,1-4.33-.792c-1.724-.91-4.442-1.336-4.756-2.009s-9.558-3.916-9.558-3.916-12.585-6.684-17.078-2.714S643.016,644.125,643.7,645.794Z" transform="translate(-508.757 -508.263)" fill="#434175"/>
    <path id="Path_525" data-name="Path 525" d="M829.82,453.412l1.619,5.379,2.088,12.116,7.678.522,2.222-3.685,2.227-3.679s1.382-4.9,2.376-9.633c.878-4.19,1.452-8.257.5-8.7-.847-.393-1.4-1.8-1.755-3.321-.046-.186-.088-.377-.127-.568a29.531,29.531,0,0,1-.509-3.894s-16.087-.834-13.84,5.8a10.571,10.571,0,0,1,.605,3.527,8.4,8.4,0,0,1-.055.9A7.524,7.524,0,0,1,829.82,453.412Z" transform="translate(-654.301 -354.214)" fill="#ee8e9e"/>
    <path id="Path_526" data-name="Path 526" d="M814.58,488.966l.575,9.139,1.305,7.781,1.463,3.6,1.305,19.717s12.594,1.457,15.657-.026a1.346,1.346,0,0,0,.555-.439c3.7-5.579,2.486-21.76,2.486-21.76l1.411-10.449-.941-5.423-2.271-.241-1.755-.186s-.395.487-.965,1.239c-1.549,2.045-4.387,6.066-4.205,7.744.259,2.3-.314,4.648-1.2,5.015s-1.619.992-1.775.366a2.84,2.84,0,0,1-.158-1.672,13.754,13.754,0,0,0-.68-3.6s-1.408-3.185-1.316-4.543-.156-2.926-.575-3.291-.992-.733-.522-2.413-2.06-4.925-2.06-4.925Z" transform="translate(-642.404 -390.656)" fill="#e3e8f4"/>
    <path id="Path_527" data-name="Path 527" d="M890.331,490.964l.522,15.617,3.016,1.672a1.349,1.349,0,0,0,.555-.439c3.7-5.587,2.488-21.766,2.488-21.766l1.411-10.447-.941-5.421-2.273-.241c.878-4.19,1.452-8.257.5-8.7-.849-.393-1.406-1.8-1.768-3.321h0l-1.623,11.056s.136,1,.184,2.023a5.8,5.8,0,0,1-.132,1.946,6.5,6.5,0,0,0-.105,2.613c-.941,1.658-1.411,4.732-1.641,7.7C890.212,487.2,890.331,490.964,890.331,490.964Z" transform="translate(-701.52 -369.829)" opacity="0.1"/>
    <path id="Path_528" data-name="Path 528" d="M894.909,456.82s2.632.327,3.466,1.424,3.03,1.248,3.03,1.248,2.507.836,2.455,1.044.731.524,2.3.941,4.168,1.933,4.168,2.3,4.126,4.438,4.126,4.857,1.255,1.974,1.1,4.752-.314,6.267.314,6.842,0,2.821,0,2.821a1.536,1.536,0,0,0-.033,1.672c.522.941-.1,4.859-.1,4.859l.05,4.074s-.575,2.558.105,2.663-.105,1.253-.105,1.253-.575,2.091.158,3.03.939,4.962.939,4.962l11.188,16.234s.158,2.977-3.394,2.924-3.51.68-3.4,1.358-.992,1.411-.992,1.411-1.411.731-.575,1.619,3.238,2.924-.731,4.282a9.465,9.465,0,0,1-1.15-2.088,23.644,23.644,0,0,1-.836-2.819s-.366-3.971-1.1-4.493-.627-3.03-.627-3.03,1.044-2.036-.417-2.872-22.69-12.577-22.69-12.577l-.522-15.617s-.366-11.541,1.827-15.406a6.485,6.485,0,0,1,.105-2.611c.366-.939-.053-3.971-.053-3.971Z" transform="translate(-702.54 -368.97)" fill="#565387"/>
    <path id="Path_529" data-name="Path 529" d="M776.3,483.229s-5.25-1.082-6.66-.351-4.168,1.316-4.607,1.724-1.463.105-2.4,2.56-1.046,4.96-2.246,6.109-1.827,1.933-1.88,2.768.156,1.044-.314,1.316-1.15,1.358-.941,1.777,10.883,9.6,10.883,9.6a24.947,24.947,0,0,0,.994,4.387c.469.877-.522,13.11-1.566,13.945s7.051.759,7.051.759.364-8.018.678-8.437-.219-8.994-.219-8.994-.053-7.312.627-9.244.6-8.349.6-8.349.6-3.854,1.332-4.754S776.3,483.229,776.3,483.229Z" transform="translate(-597.623 -389.114)" opacity="0.1"/>
    <path id="Path_530" data-name="Path 530" d="M775.593,482.519s-5.252-1.081-6.662-.351-4.168,1.305-4.6,1.724-1.461.1-2.413,2.558-1.044,4.962-2.246,6.112-1.827,1.933-1.88,2.768.158,1.044-.312,1.305-1.149,1.358-.941,1.775,10.863,9.611,10.863,9.611a24.9,24.9,0,0,0,.992,4.387c.469.878-.522,13.107-1.566,13.943s7.051.759,7.051.759.366-8.018.68-8.435-.219-8.994-.219-8.994-.05-7.312.627-9.244.6-8.358.6-8.358.6-3.854,1.329-4.752S775.593,482.519,775.593,482.519Z" transform="translate(-597.068 -388.56)" fill="#565387"/>
    <path id="Path_531" data-name="Path 531" d="M840.236,443.748a10.57,10.57,0,0,1,.605,3.528,11.984,11.984,0,0,0,13.744-5.432,29.531,29.531,0,0,1-.509-3.894S837.992,437.117,840.236,443.748Z" transform="translate(-662.264 -354.214)" opacity="0.1"/>
    <path id="Path_532" data-name="Path 532" d="M804.82,384.277a11.96,11.96,0,1,0,.259-2.485A11.96,11.96,0,0,0,804.82,384.277Z" transform="translate(-634.785 -302.996)" fill="#ee8e9e"/>
    <path id="Path_533" data-name="Path 533" d="M732.467,553.06l-2.872.888a1.489,1.489,0,0,1-.575,1.566,1.748,1.748,0,0,0-.731,1.568s-.314,1.147-1.044,1.408-1.2,1.974-1.2,1.974l-2.4,2.768s-.888.73-.731,1.1-.941.469-.941.469l.575,9.306,4.962.941,3.071-.314,2.507-.941,2.194-1.316,1-2.538,4.387-6.684Z" transform="translate(-570.11 -444.098)" fill="#565387"/>
    <path id="Path_534" data-name="Path 534" d="M679.724,589.712s-6.362-9.194-11.124-4.232,1.933,13,3.5,12.743,9.036-.678,9.036-.678Z" transform="translate(-527.134 -468.259)" fill="#ee8e9e"/>
    <rect id="Rectangle_13" data-name="Rectangle 13" width="13.474" height="15.312" rx="6.737" transform="translate(137.36 122.217) rotate(-42.05)" fill="#30374e"/>
    <rect id="Rectangle_14" data-name="Rectangle 14" width="13.474" height="15.312" rx="6.737" transform="translate(137.36 122.217) rotate(-42.05)" opacity="0.1"/>
    <rect id="Rectangle_15" data-name="Rectangle 15" width="13.474" height="15.312" rx="6.737" transform="translate(137.54 121.46) rotate(-42.05)" fill="#30374e"/>
    <circle id="Ellipse_25" data-name="Ellipse 25" cx="2.977" cy="2.977" r="2.977" transform="translate(144.526 120.034)" fill="#ff8c00"/>
    <circle id="Ellipse_26" data-name="Ellipse 26" cx="2.977" cy="2.977" r="2.977" transform="translate(144.526 120.034)" opacity="0.1"/>
    <circle id="Ellipse_27" data-name="Ellipse 27" cx="2.977" cy="2.977" r="2.977" transform="translate(144.693 119.656)" fill="#ff8c00"/>
    <path id="Path_535" data-name="Path 535" d="M706.5,607.259c-.053,6.895,14.207,8.356,14.207,8.356l3.642.579,1.632.259.68-6.73s-.748-.112-1.683-.329c-1.38-.322-3.168-.877-3.543-1.656C720.809,606.432,706.55,600.366,706.5,607.259Z" transform="translate(-558.034 -483.882)" fill="#ee8e9e"/>
    <path id="Path_536" data-name="Path 536" d="M806,381.968a1.419,1.419,0,0,1,.877.39c.4.428.426,1.187.95,1.45a1.079,1.079,0,0,0,.623.072c1.389-.2,2.194-1.755,3.525-2.194a3.554,3.554,0,0,1,2.336.2,1.739,1.739,0,0,1,.774.5c.439.577.134,1.426.34,2.126.287.97,1.446,1.356,2.448,1.483a4.279,4.279,0,0,1,2.8.954,2.542,2.542,0,0,1,.5,2.02,1.6,1.6,0,0,0,0,.748c.276.783,1.632.658,1.985.048.259-.45.18-.823.79-.948a2.6,2.6,0,0,1,1.279.219,9.369,9.369,0,0,0,3.308.509A11.962,11.962,0,1,0,806,381.968Z" transform="translate(-635.707 -303.172)" opacity="0.1"/>
    <path id="Path_537" data-name="Path 537" d="M810.711,366.6a1.6,1.6,0,0,1,0-.748,2.544,2.544,0,0,0-.5-2.02,4.246,4.246,0,0,0-2.8-.954c-1-.125-2.161-.511-2.448-1.481-.206-.7.105-1.551-.34-2.128a1.711,1.711,0,0,0-.772-.5,3.6,3.6,0,0,0-2.339-.2c-1.332.439-2.137,2-3.525,2.194a1.079,1.079,0,0,1-.623-.072c-.524-.263-.546-1.022-.95-1.448-.634-.671-1.838-.239-2.615-.737a2.4,2.4,0,0,1-.842-1.547,7.532,7.532,0,0,1-.233-3.464c.454-1.944,2.194-3.275,3.291-4.934,1.033-1.547,1.612-3.51,3.166-4.528s3.547-.792,5.3-.272a16.351,16.351,0,0,0,2.481.658,28.582,28.582,0,0,0,4.251-.259,9.13,9.13,0,0,1,5.614,1.7,3.106,3.106,0,0,1,.917.928,4.747,4.747,0,0,1,.406,1.663,8.5,8.5,0,0,0,1.1,3.056c.439.735.989,1.4,1.386,2.161a3.315,3.315,0,0,1,.375,2.472c-.134.439-.4.818-.5,1.259-.233,1.02.439,1.994.9,2.935a5.506,5.506,0,0,1,.61,2.784,3.51,3.51,0,0,1-1.25,2.5,4.493,4.493,0,0,1-2.648.8,9.384,9.384,0,0,1-3.374-.507,2.627,2.627,0,0,0-1.279-.219c-.61.125-.531.5-.79.948C812.341,367.265,810.988,367.381,810.711,366.6Z" transform="translate(-625.251 -280.37)" fill="#434175"/>
    <path id="Path_538" data-name="Path 538" d="M829.01,700.389l6.737-5.265,10.6-10.447s-1.426-.07-3.51-.158a2.266,2.266,0,0,0-.739,1.426c-.053,1.277-2.867.09-4.328.82s-8.617,9.887-9.872,9.828-2.244-.636-2.768.252a.542.542,0,0,1-.037.059,1.485,1.485,0,0,1-.8.472Z" transform="translate(-649.992 -546.719)" opacity="0.1"/>
    <path id="Path_539" data-name="Path 539" d="M783.87,687.1l3.385,10.806.531,1.7,1.612-.439,3.554-.976,15.83-4.348a13.791,13.791,0,0,0,5.7-1.52,17.255,17.255,0,0,1,9.837-2.145c2.093.2,4.42-.706,6.362-4.273,0,0,4.387-12.943-6.686-16.672s-11.6,1.974-11.6,1.974-.057.031-.149.092c-.439.274-1.634,1.136-1.678,2.194-.053,1.277-2.867.088-4.328.818s-8.617,9.889-9.872,9.83-2.244-.636-2.768.252c0,.02-.024.037-.037.057-.386.533-1.549.658-2.319.678-.419.013-.724,0-.724,0l-.1.031-.82.228Z" transform="translate(-618.431 -533.795)" fill="#434175"/>
    <path id="Path_540" data-name="Path 540" d="M787.86,635.3l1.632.259.68-6.73s-.748-.112-1.683-.329C788.737,629.432,788.176,633.067,787.86,635.3Z" transform="translate(-621.546 -502.988)" opacity="0.1"/>
    <path id="Path_541" data-name="Path 541" d="M831.422,515.427s4.857-1.411,3.655,12.379a38.5,38.5,0,0,1-10.183,22.5s-10.341,4.543-14.99,3.813a79.691,79.691,0,0,0-8.042-.878,11.8,11.8,0,0,0-4.7-1.253c-2.613-.105-8.095-1.724-8.2-2.246s1.358-8.2.73-8.775c0,0,7.312.3,8.044.829s1.775.149,2.558,0,3.187-2.24,7.939-.41a4.814,4.814,0,0,0,2.246-.261,2.245,2.245,0,0,1,1.632-.105,4.278,4.278,0,0,0,1.136-.586c.151-.219,1.408,0,1.408,0a.557.557,0,0,0,.785-.366,3.414,3.414,0,0,1,.731-1.147s1.411-7.939,4.074-10.916a1.705,1.705,0,0,0,.575-1.516C820.612,525.654,825.161,513.753,831.422,515.427Z" transform="translate(-622.401 -414.594)" opacity="0.1"/>
    <path id="Path_542" data-name="Path 542" d="M830.843,510.589s4.857-1.411,3.657,12.379a38.5,38.5,0,0,1-10.2,22.51s-10.341,4.543-14.99,3.813-8.042-.888-8.042-.888a11.784,11.784,0,0,0-4.7-1.253c-2.611-.105-8.095-1.724-8.2-2.246s1.358-8.2.733-8.775c0,0,7.312.3,8.042.829s1.777.149,2.56,0,3.185-2.238,7.939-.41a4.8,4.8,0,0,0,2.244-.261,2.252,2.252,0,0,1,1.634-.105,4.6,4.6,0,0,0,1.134-.575c.156-.208,1.411,0,1.411,0a.555.555,0,0,0,.783-.364,3.409,3.409,0,0,1,.731-1.15s1.411-7.939,4.074-10.916a1.7,1.7,0,0,0,.575-1.514C820.022,520.829,824.565,508.917,830.843,510.589Z" transform="translate(-621.94 -410.818)" fill="#565387"/>
    <path id="Path_543" data-name="Path 543" d="M810,746.48l6.9,8.336c.026-.024.044-.042.044-.048.053-.158.73-1.933.575-2.038s-1.358-2.716-3.76-3.813a7.069,7.069,0,0,1-2.953-2.687Z" transform="translate(-638.829 -594.892)" opacity="0.1"/>
    <path id="Path_544" data-name="Path 544" d="M809.908,780.4l.755.439s1.755-1.4,3.49-2.817,3.429-2.8,3.457-2.876c.05-.156.728-1.933.573-2.036-.081-.055-.439-.779-1.1-1.617-4.677-1.316-1.7,1.937-1.3,2.086,0,0-5.7-1.316-6.006,4.894A7.321,7.321,0,0,0,809.908,780.4Z" transform="translate(-638.643 -614.371)" opacity="0.1"/>
    <path id="Path_545" data-name="Path 545" d="M817.394,783.055l.994.575,10.091.261a19.5,19.5,0,0,0,3.567,1.716,3.061,3.061,0,0,0,.507.112,22.666,22.666,0,0,0,2.808.053c.772-.02,1.371-.053,1.371-.053s-.478-12.724-.838-14.04c-.171-.641-1.016-.5-1.849-.18a12.1,12.1,0,0,0-1.805.915,32.265,32.265,0,0,0-4.962.783c-.68.369-2.611-.219-3.813,0s-3.341-1.415-3.341-1.415c-5.851-1.93-2.56,1.672-2.143,1.83,0,0-5.69-1.316-6,4.894S817.394,783.055,817.394,783.055Z" transform="translate(-640.362 -614.395)" fill="#565387"/>
    <path id="Path_546" data-name="Path 546" d="M903.133,778.194c.11,2.633,2.161,5.9,3.383,7.625.772-.02,1.371-.053,1.371-.053s-.478-12.724-.838-14.04c-.171-.641-1.016-.5-1.849-.18C904.2,773.434,903.045,776.073,903.133,778.194Z" transform="translate(-711.528 -614.444)" fill="#565387"/>
    <path id="Path_547" data-name="Path 547" d="M903.133,778.194c.11,2.633,2.161,5.9,3.383,7.625.772-.02,1.371-.053,1.371-.053s-.478-12.724-.838-14.04c-.171-.641-1.016-.5-1.849-.18C904.2,773.434,903.045,776.073,903.133,778.194Z" transform="translate(-711.528 -614.444)" opacity="0.1"/>
    <path id="Path_548" data-name="Path 548" d="M894.686,778.543c.693,2.54.687,5.39,1.792,7.112a3.059,3.059,0,0,0,.507.112,22.666,22.666,0,0,0,2.808.053c.772-.02,1.371-.053,1.371-.053s-.478-12.724-.838-14.04c-.171-.641-1.016-.5-1.849-.18a12.107,12.107,0,0,0-1.805.915S893.8,775.292,894.686,778.543Z" transform="translate(-704.805 -614.444)" opacity="0.05"/>
    <path id="Path_549" data-name="Path 549" d="M736.77,686.94a20.846,20.846,0,0,1,9.249,7.4Z" transform="translate(-581.664 -548.608)" opacity="0.1"/>
    <g id="Group_31" data-name="Group 31" transform="translate(167.345 72.072)" opacity="0.1">
      <path id="Path_550" data-name="Path 550" d="M921.5,401.26a1.033,1.033,0,0,1-.031.11,3.536,3.536,0,0,1-.173.439A3.276,3.276,0,0,1,921.5,401.26Z" transform="translate(-893.058 -397.671)"/>
      <path id="Path_551" data-name="Path 551" d="M792.679,385.955a4.709,4.709,0,0,1,.388-1.055c-.026.09-.055.18-.077.272a7.533,7.533,0,0,0,.233,3.464,2.413,2.413,0,0,0,.842,1.547c.779.5,1.974.064,2.615.735.4.428.426,1.187.952,1.45a1.077,1.077,0,0,0,.623.072c1.386-.2,2.194-1.755,3.525-2.194a3.542,3.542,0,0,1,2.336.2,1.711,1.711,0,0,1,.772.5c.439.577.134,1.428.34,2.126.287.97,1.446,1.356,2.448,1.481a4.257,4.257,0,0,1,2.8.956,2.54,2.54,0,0,1,.5,2.02,1.629,1.629,0,0,0,0,.748c.276.783,1.632.658,1.974.048.259-.45.182-.823.792-.948a2.6,2.6,0,0,1,1.277.219,9.385,9.385,0,0,0,3.374.507,4.472,4.472,0,0,0,2.648-.8,3.071,3.071,0,0,0,.812-.987,3.322,3.322,0,0,1-1.119,1.773,4.483,4.483,0,0,1-2.648.8,9.364,9.364,0,0,1-3.372-.507,2.626,2.626,0,0,0-1.279-.219c-.61.125-.533.5-.79.948-.355.619-1.709.735-1.988-.048a1.629,1.629,0,0,1,0-.748,2.535,2.535,0,0,0-.5-2.02,4.277,4.277,0,0,0-2.8-.954c-1-.125-2.161-.511-2.446-1.481-.208-.7.105-1.551-.34-2.128a1.729,1.729,0,0,0-.774-.5,3.6,3.6,0,0,0-2.336-.2c-1.334.439-2.139,2-3.525,2.194a1.077,1.077,0,0,1-.623-.072c-.527-.263-.548-1.022-.952-1.448-.634-.671-1.836-.239-2.613-.737a2.4,2.4,0,0,1-.845-1.547A7.572,7.572,0,0,1,792.679,385.955Z" transform="translate(-792.558 -384.9)"/>
    </g>
    <path id="Path_552" data-name="Path 552" d="M910.992,571.354c-.956,1.292-2.049,2.488-2.9,3.854a7.312,7.312,0,0,0-1.268,4.559,11.921,11.921,0,0,0,1.83-3.269,46.931,46.931,0,0,1,3.51-5.282c.219-.336,1.669-2.271.939-2.363C912.506,568.776,911.319,570.913,910.992,571.354Z" transform="translate(-714.392 -456.425)" opacity="0.1"/>
  </g>
</svg>
